<svg id="Layer_1" data-name="Layer 1" xmlns="http://www.w3.org/2000/svg" viewBox="0 0 24 23.8">
  <defs>
    <style>
      .cls-1 {
        fill: #fff;
      }
    </style>
  </defs>
  <path class="cls-1" d="M12,23.8c-7.78,0-12-5-12-11.41C0,5.51,4.74,0,13.22,0,19.41,0,24,4.13,24,9.81c0,8.9-10.29,11.25-9.77,6.17a4.55,4.55,0,0,1-4,2.41c-2.5,0-4.06-1.89-4.06-4.91C6,8.9,9,5.1,12.38,5.1a3.27,3.27,0,0,1,3.27,2.27l.46-1.67h2.33c-.25.85-2.32,8.71-2.32,8.71-.64,2.73,1.35,2.77,3.11,1.33,3.32-2.64,3.49-9.53-1-12.41C13.44.38,2.51,2.21,2.51,12.21c0,5.74,3.93,9.59,9.79,9.59a13.11,13.11,0,0,0,7.26-2l1.18,1.73A16.64,16.64,0,0,1,12,23.8ZM9.66,9.19a10.64,10.64,0,0,0-1.17,4.52c0,3.68,3.5,3.71,5.23.24a11.43,11.43,0,0,0,1.16-4.63C14.88,6.34,11.4,5.81,9.66,9.19Z" transform="translate(0.05)"/>
</svg>
