<svg id="Layer_1" data-name="Layer 1" xmlns="http://www.w3.org/2000/svg" viewBox="0 0 24 24.02">
  <defs>
    <style>
      .cls-1 {
        fill: #fff;
      }
    </style>
  </defs>
  <path class="cls-1" d="M12,0A12.15,12.15,0,0,0,0,12.3H0A12.28,12.28,0,0,0,8.21,24c.6.11.79-.27.79-.59V21.1c-3.34.74-4-1.46-4-1.46a3.23,3.23,0,0,0-1.34-1.8c-1.09-.76.09-.74.09-.74a2.53,2.53,0,0,1,1.84,1.26A2.53,2.53,0,0,0,9,19.41l.08-.05a2.64,2.64,0,0,1,.76-1.65c-2.67-.31-5.47-1.37-5.47-6.08a4.78,4.78,0,0,1,1.24-3.3A4.5,4.5,0,0,1,5.7,5.1s1-.33,3.3,1.26A10.86,10.86,0,0,1,12,6a11.3,11.3,0,0,1,3,.41c2.3-1.64,3.3-1.31,3.3-1.31a4.48,4.48,0,0,1,.12,3.26,4.78,4.78,0,0,1,1.24,3.3c0,4.73-2.81,5.77-5.48,6.07A3,3,0,0,1,15,20v3.38c0,.32.19.71.8.59A12.28,12.28,0,0,0,24,12.3,12.15,12.15,0,0,0,12,0Z" transform="translate(0)"/>
</svg>
