<svg id="Layer_1" data-name="Layer 1" xmlns="http://www.w3.org/2000/svg" viewBox="0 0 24 24">
  <defs>
    <style>
      .cls-1 {
        fill: #fff;
      }
    </style>
  </defs>
  <path class="cls-1" d="M12,2.66c3.2,0,3.58,0,4.85.07,3.25.15,4.77,1.69,4.92,4.92.06,1.27.07,1.65.07,4.85s0,3.59-.07,4.85c-.15,3.23-1.66,4.77-4.92,4.92-1.27.06-1.64.07-4.85.07s-3.58,0-4.85-.07c-3.26-.15-4.77-1.7-4.92-4.92-.06-1.27-.07-1.64-.07-4.85s0-3.58.07-4.85C2.38,4.42,3.9,2.88,7.15,2.73,8.42,2.68,8.8,2.66,12,2.66ZM12,.5C8.74.5,8.33.5,7.05.57c-4.35.2-6.78,2.62-7,7C0,8.83,0,9.24,0,12.5s0,3.67.07,5c.2,4.36,2.62,6.78,7,7H12c3.26,0,3.67,0,4.95-.07,4.35-.2,6.78-2.62,7-7,.05-1.26.05-1.67.05-4.93s0-3.67-.07-4.95c-.2-4.35-2.62-6.78-7-7C15.67.5,15.26.5,12,.5Zm0,5.84a6.16,6.16,0,1,0,6.16,6.16h0A6.16,6.16,0,0,0,12,6.34ZM12,16.5a4,4,0,1,1,4-4A4,4,0,0,1,12,16.5ZM18.41,4.65A1.44,1.44,0,1,0,19.84,6.1h0A1.44,1.44,0,0,0,18.41,4.65Z" transform="translate(0 -0.5)"/>
</svg>
