<?xml version="1.0" encoding="utf-8"?>
<!-- Generator: Adobe Illustrator 24.1.0, SVG Export Plug-In . SVG Version: 6.00 Build 0)  -->
<svg version="1.1" id="Layer_1" xmlns="http://www.w3.org/2000/svg" xmlns:xlink="http://www.w3.org/1999/xlink" x="0px" y="0px"
	 viewBox="0 0 455 560.1" style="enable-background:new 0 0 455 560.1;" xml:space="preserve">
<style type="text/css">
	.st0{fill:#171618;}
</style>
<g id="Layer_1-2">
	<path class="st0" d="M0,39.1V3.3C0,1.5,1.5,0,3.3,0l0,0h3.2c1.8,0,3.3,1.5,3.3,3.3l0,0l0,0v35.7c0,8.7,6.1,15.1,13.8,15.1
		s13.9-6.4,13.9-15.1V3.3C37.7,1.5,39.2,0,41,0l0,0h3.3c1.8,0,3.3,1.5,3.3,3.3l0,0v35.8c0,14.5-10.4,25-23.8,25S0,53.6,0,39.1z"/>
</g>
<g id="Layer_2_1_">
	<g>
		<path class="st0" d="M44.6,2.9L8.5,27.8L44.6,2.9z"/>
		<path class="st0" d="M6.2,31.7L4.3,29c2.2-4.1-1.5-3.4,0-4.4L39,0.7c1.5-1,3.6-0.7,4.7,0.9l0,0l1.9,2.7c1.1,1.5,0.7,3.6-0.9,4.7
			l0,0L9.8,33.3C8.2,34.3,10.5,30.6,6.2,31.7z"/>
	</g>
</g>
<g id="Layer_3">
	<path class="st0" d="M14.8,33.5c-0.9,0.6-1.4,1.6-1.4,2.7v6.2c0,1.8,1.5,3.3,3.3,3.3h14.1c1.8,0,3.3-1.5,3.3-3.3V26.5
		c0-2.7-3-4.2-5.2-2.7L14.8,33.5z"/>
</g>
<g id="Layer_1-2_1_">
	<path class="st0" d="M57.6,40.5V4.8c0-1.8,1.5-3.3,3.3-3.3l0,0h3.2c1.8,0,3.3,1.5,3.3,3.3l0,0l0,0v35.7c0,8.7,6.1,15.1,13.8,15.1
		s13.9-6.4,13.9-15.1V4.8c0-1.8,1.5-3.3,3.3-3.3l0,0h3.3c1.8,0,3.3,1.5,3.3,3.3l0,0v35.8c0,14.4-10.4,25-23.8,25S57.6,55,57.6,40.5z
		"/>
</g>
<g id="Layer_2_2_">
	<g>
		<path class="st0" d="M102.2,4.3L66.1,29.2L102.2,4.3z"/>
		<path class="st0" d="M63.7,33.1l-1.9-2.7c2.2-4.1-1.5-3.4,0-4.4L96.6,2.1c1.5-1,3.6-0.7,4.7,0.9l0,0l1.9,2.7
			c1.1,1.5,0.7,3.6-0.9,4.7l0,0L67.3,34.7C65.8,35.8,68.1,32.1,63.7,33.1z"/>
	</g>
</g>
<g id="Layer_3_1_">
	<path class="st0" d="M72.4,34.9c-0.9,0.6-1.4,1.6-1.4,2.7v6.2c0,1.8,1.5,3.3,3.3,3.3h14.1c1.8,0,3.3-1.5,3.3-3.3V27.9
		c0-2.7-3-4.3-5.2-2.7L72.4,34.9z"/>
</g>
<g id="Layer_1-2_3_">
	<path class="st0" d="M116.6,39.8V4c0-1.8,1.5-3.3,3.3-3.3l0,0h3.2c1.9,0,3.3,1.5,3.3,3.3l0,0l0,0v35.7c0,8.7,6.1,15.1,13.8,15.1
		s13.9-6.4,13.9-15.1V4c0-1.8,1.5-3.3,3.3-3.3l0,0h3.3c1.8,0,3.3,1.5,3.3,3.3l0,0v35.8c0,14.5-10.4,25-23.8,25
		C127,64.8,116.6,54.3,116.6,39.8z"/>
</g>
<g id="Layer_2_4_">
	<g>
		<path class="st0" d="M161.2,3.6l-36.1,24.9L161.2,3.6z"/>
		<path class="st0" d="M122.7,32.4l-1.9-2.7c2.2-4.1-1.5-3.4,0-4.4l34.8-23.9c1.5-1,3.6-0.7,4.7,0.9l0,0l1.9,2.7
			c1.1,1.5,0.7,3.6-0.9,4.7l0,0L126.3,34C124.8,35.1,127.1,31.4,122.7,32.4z"/>
	</g>
</g>
<g id="Layer_3_3_">
	<path class="st0" d="M131.4,34.2c-0.9,0.6-1.4,1.6-1.4,2.7v6.2c0,1.8,1.5,3.3,3.3,3.3h14.1c1.8,0,3.3-1.5,3.3-3.3V27.2
		c0-2.7-3-4.3-5.2-2.7L131.4,34.2z"/>
</g>
<g id="Layer_1-2_2_">
	<path class="st0" d="M174.1,41.2V5.5c0-1.8,1.5-3.3,3.3-3.3l0,0h3.2c1.9,0,3.3,1.5,3.3,3.3l0,0l0,0v35.7c0,8.7,6.1,15.1,13.8,15.1
		s13.9-6.4,13.9-15.1V5.5c0-1.8,1.5-3.3,3.3-3.3l0,0h3.3c1.9,0,3.3,1.5,3.3,3.3l0,0v35.8c0,14.5-10.4,25-23.8,25
		C184.5,66.3,174.1,55.7,174.1,41.2z"/>
</g>
<g id="Layer_2_3_">
	<g>
		<path class="st0" d="M218.8,5l-36.1,24.9L218.8,5z"/>
		<path class="st0" d="M180.3,33.8l-1.9-2.7c2.2-4.1-1.5-3.4,0-4.4l34.8-23.9c1.5-1,3.6-0.7,4.7,0.9l0,0l1.9,2.7
			c1,1.5,0.7,3.6-0.9,4.7l0,0l-34.9,24.4C182.4,36.5,184.6,32.8,180.3,33.8z"/>
	</g>
</g>
<g id="Layer_3_2_">
	<path class="st0" d="M189,35.7c-0.9,0.6-1.4,1.6-1.4,2.7v6.2c0,1.8,1.5,3.3,3.3,3.3H205c1.8,0,3.3-1.5,3.3-3.3V28.7
		c0-2.7-3-4.3-5.2-2.7L189,35.7z"/>
</g>
<g id="Layer_1-2_7_">
	<path class="st0" d="M231.7,42.6V6.8c0-1.8,1.5-3.3,3.3-3.3l0,0h3.2c1.9,0,3.3,1.5,3.3,3.3l0,0l0,0v35.7c0,8.7,6.1,15.1,13.8,15.1
		c7.7,0,13.9-6.4,13.9-15.1V6.8c0-1.8,1.5-3.3,3.3-3.3l0,0h3.3c1.8,0,3.3,1.5,3.3,3.3l0,0v35.8c0,14.4-10.4,25-23.8,25
		C242.1,67.6,231.7,57,231.7,42.6z"/>
</g>
<g id="Layer_2_8_">
	<g>
		<path class="st0" d="M276.3,6.4l-36.1,24.9L276.3,6.4z"/>
		<path class="st0" d="M237.8,35.2l-1.9-2.7c2.2-4.1-1.5-3.4,0-4.4l34.7-23.9c1.5-1,3.6-0.7,4.7,0.9l0,0l1.9,2.7
			c1.1,1.5,0.7,3.6-0.9,4.7l0,0l-34.9,24.4C239.9,37.8,242.2,34.1,237.8,35.2z"/>
	</g>
</g>
<g id="Layer_3_7_">
	<path class="st0" d="M246.5,37c-0.9,0.6-1.4,1.6-1.4,2.7v6.2c0,1.8,1.5,3.3,3.3,3.3h14.1c1.8,0,3.3-1.5,3.3-3.3V30
		c0-2.7-3-4.3-5.2-2.7L246.5,37z"/>
</g>
<g id="Layer_1-2_6_">
	<path class="st0" d="M289.3,44V8.2c0-1.8,1.5-3.3,3.3-3.3l0,0h3.2c1.9,0,3.3,1.5,3.3,3.3l0,0l0,0V44c0,8.7,6.1,15.1,13.8,15.1
		c7.7,0,13.9-6.4,13.9-15.1V8.2c0-1.8,1.5-3.3,3.3-3.3l0,0h3.3c1.9,0,3.3,1.5,3.3,3.3l0,0V44c0,14.5-10.4,25-23.8,25
		C299.6,69,289.3,58.5,289.3,44z"/>
</g>
<g id="Layer_2_7_">
	<g>
		<path class="st0" d="M333.9,7.8l-36.1,24.9L333.9,7.8z"/>
		<path class="st0" d="M295.4,36.6l-1.9-2.7c2.2-4.1-1.5-3.4,0-4.4l34.8-23.9c1.5-1.1,3.6-0.7,4.7,0.9l0,0l1.9,2.7
			c1,1.5,0.7,3.6-0.9,4.7l0,0L299,38.2C297.5,39.3,299.7,35.6,295.4,36.6z"/>
	</g>
</g>
<g id="Layer_3_6_">
	<path class="st0" d="M304.1,38.4c-0.9,0.6-1.4,1.6-1.4,2.7v6.2c0,1.8,1.5,3.3,3.3,3.3h14.1c1.8,0,3.3-1.5,3.3-3.3V31.4
		c0-2.7-3-4.3-5.2-2.7L304.1,38.4z"/>
</g>
<g id="Layer_1-2_5_">
	<path class="st0" d="M348.3,43.3V7.5c0-1.8,1.5-3.3,3.3-3.3l0,0h3.2c1.8,0,3.3,1.5,3.3,3.3l0,0l0,0v35.7c0,8.7,6.1,15.1,13.8,15.1
		c7.7,0,13.9-6.4,13.9-15.1V7.5c0-1.8,1.5-3.3,3.3-3.3l0,0h3.3c1.8,0,3.3,1.5,3.3,3.3l0,0v35.8c0,14.5-10.4,25-23.8,25
		S348.3,57.8,348.3,43.3z"/>
</g>
<g id="Layer_2_6_">
	<g>
		<path class="st0" d="M392.9,7.1L356.8,32L392.9,7.1z"/>
		<path class="st0" d="M354.4,35.9l-1.9-2.7c2.2-4.1-1.5-3.4,0-4.4l34.8-23.9c1.5-1,3.6-0.7,4.7,0.9l0,0l1.9,2.7
			c1.1,1.5,0.7,3.6-0.9,4.7l0,0L358,37.5C356.5,38.5,358.8,34.8,354.4,35.9z"/>
	</g>
</g>
<g id="Layer_3_5_">
	<path class="st0" d="M363.1,37.7c-0.9,0.6-1.4,1.6-1.4,2.7v6.2c0,1.8,1.5,3.3,3.3,3.3h14.1c1.8,0,3.3-1.5,3.3-3.3V30.7
		c0-2.7-3-4.3-5.2-2.7L363.1,37.7z"/>
</g>
<g id="Layer_1-2_4_">
	<path class="st0" d="M405.8,44.7V9c0-1.8,1.5-3.3,3.3-3.3l0,0h3.2c1.9,0,3.3,1.5,3.3,3.3l0,0l0,0v35.7c0,8.7,6.1,15.1,13.8,15.1
		c7.7,0,13.9-6.4,13.9-15.1V9c0-1.8,1.5-3.3,3.3-3.3l0,0h3.3c1.9,0,3.3,1.5,3.3,3.3l0,0v35.8c0,14.4-10.4,25-23.8,25
		C416.2,69.8,405.8,59.2,405.8,44.7z"/>
</g>
<g id="Layer_2_5_">
	<g>
		<path class="st0" d="M450.5,8.5l-36.1,24.9L450.5,8.5z"/>
		<path class="st0" d="M412,37.3l-1.9-2.7c2.2-4.1-1.5-3.4,0-4.4l34.8-23.9c1.5-1,3.6-0.7,4.7,0.9l0,0l1.9,2.7
			c1,1.5,0.7,3.6-0.9,4.7l0,0l-34.9,24.4C414.1,40,416.3,36.3,412,37.3z"/>
	</g>
</g>
<g id="Layer_3_4_">
	<path class="st0" d="M420.7,39.1c-0.9,0.6-1.4,1.6-1.4,2.7v6.2c0,1.8,1.5,3.3,3.3,3.3h14.1c1.8,0,3.3-1.5,3.3-3.3V32.1
		c0-2.7-3-4.2-5.2-2.7L420.7,39.1z"/>
</g>
<g id="Layer_1-2_15_">
	<path class="st0" d="M0.8,108.1V72.4c0-1.8,1.5-3.3,3.3-3.3l0,0h3.2c1.8,0,3.3,1.5,3.3,3.3l0,0l0,0v35.7c0,8.7,6.1,15.1,13.8,15.1
		s13.9-6.4,13.9-15.1V72.4c0-1.8,1.5-3.3,3.3-3.3l0,0H45c1.8,0,3.3,1.5,3.3,3.3l0,0v35.8c0,14.4-10.4,25-23.8,25
		S0.8,122.6,0.8,108.1z"/>
</g>
<g id="Layer_2_16_">
	<g>
		<path class="st0" d="M45.4,72L9.3,96.8L45.4,72z"/>
		<path class="st0" d="M6.9,100.7L5,98c2.2-4.1-1.5-3.4,0-4.4l34.8-23.9c1.5-1,3.6-0.7,4.7,0.9l0,0l1.9,2.7c1,1.5,0.7,3.6-0.9,4.7
			l0,0l-34.9,24.4C9,103.4,11.3,99.7,6.9,100.7z"/>
	</g>
</g>
<g id="Layer_3_15_">
	<path class="st0" d="M15.6,102.6c-0.9,0.6-1.4,1.6-1.4,2.7v6.2c0,1.8,1.5,3.3,3.3,3.3h14.1c1.8,0,3.3-1.5,3.3-3.3V95.6
		c0-2.7-3-4.3-5.2-2.7L15.6,102.6z"/>
</g>
<g id="Layer_1-2_14_">
	<path class="st0" d="M58.3,109.6V73.8c0-1.8,1.5-3.3,3.3-3.3l0,0h3.2c1.8,0,3.3,1.5,3.3,3.3l0,0l0,0v35.7c0,8.7,6.1,15.1,13.8,15.1
		S96,118.2,96,109.5V73.8c0-1.8,1.5-3.3,3.3-3.3l0,0h3.3c1.8,0,3.3,1.5,3.3,3.3l0,0v35.8c0,14.4-10.4,25-23.8,25
		S58.3,124,58.3,109.6z"/>
</g>
<g id="Layer_2_15_">
	<g>
		<path class="st0" d="M102.9,73.4L66.8,98.2L102.9,73.4z"/>
		<path class="st0" d="M64.5,102.2l-1.9-2.7c2.2-4.1-1.5-3.4,0-4.4l34.8-23.9c1.5-1.1,3.6-0.7,4.7,0.9l0,0l1.9,2.7
			c1,1.5,0.7,3.6-0.9,4.7l0,0l-34.9,24.4C66.6,104.8,68.8,101.1,64.5,102.2z"/>
	</g>
</g>
<g id="Layer_3_14_">
	<path class="st0" d="M73.2,104c-0.9,0.6-1.4,1.6-1.4,2.7v6.2c0,1.8,1.5,3.3,3.3,3.3h14.1c1.8,0,3.3-1.5,3.3-3.3V97
		c0-2.7-3-4.3-5.2-2.7L73.2,104z"/>
</g>
<g id="Layer_1-2_13_">
	<path class="st0" d="M117.3,108.9V73.1c0-1.8,1.5-3.3,3.3-3.3l0,0h3.2c1.8,0,3.3,1.5,3.3,3.3l0,0l0,0v35.7
		c0,8.7,6.1,15.1,13.8,15.1c7.7,0,13.9-6.4,13.9-15.1V73.1c0-1.8,1.5-3.3,3.3-3.3l0,0h3.3c1.9,0,3.3,1.5,3.3,3.3l0,0v35.8
		c0,14.5-10.4,25-23.8,25C127.7,133.9,117.3,123.3,117.3,108.9z"/>
</g>
<g id="Layer_2_14_">
	<g>
		<path class="st0" d="M162,72.7l-36.1,24.9L162,72.7z"/>
		<path class="st0" d="M123.5,101.5l-1.9-2.7c2.2-4.1-1.5-3.4,0-4.4l34.8-23.9c1.5-1.1,3.6-0.7,4.7,0.9l0,0l1.9,2.7
			c1.1,1.5,0.7,3.6-0.9,4.7l0,0l-34.9,24.4C125.6,104.1,127.8,100.4,123.5,101.5z"/>
	</g>
</g>
<g id="Layer_3_13_">
	<path class="st0" d="M132.2,103.3c-0.9,0.6-1.4,1.6-1.4,2.7v6.2c0,1.8,1.5,3.3,3.3,3.3h14.1c1.8,0,3.3-1.5,3.3-3.3V96.3
		c0-2.7-3-4.3-5.2-2.7L132.2,103.3z"/>
</g>
<g id="Layer_1-2_12_">
	<path class="st0" d="M174.9,110.3V74.5c0-1.8,1.5-3.3,3.3-3.3l0,0h3.2c1.8,0,3.3,1.5,3.3,3.3l0,0l0,0v35.7
		c0,8.7,6.1,15.1,13.8,15.1s13.9-6.4,13.9-15.1V74.5c0-1.8,1.5-3.3,3.3-3.3l0,0h3.3c1.8,0,3.3,1.5,3.3,3.3l0,0v35.8
		c0,14.4-10.4,25-23.8,25C185.3,135.3,174.9,124.7,174.9,110.3z"/>
</g>
<g id="Layer_2_13_">
	<g>
		<path class="st0" d="M219.5,74.1l-36.1,24.9L219.5,74.1z"/>
		<path class="st0" d="M181.1,102.9l-1.9-2.7c2.2-4.1-1.5-3.4,0-4.4l34.8-23.9c1.5-1,3.6-0.7,4.7,0.9l0,0l1.9,2.7
			c1.1,1.5,0.7,3.6-0.9,4.7l0,0l-34.9,24.4C183.1,105.5,185.4,101.8,181.1,102.9z"/>
	</g>
</g>
<g id="Layer_3_12_">
	<path class="st0" d="M189.7,104.7c-0.9,0.6-1.4,1.6-1.4,2.7v6.2c0,1.8,1.5,3.3,3.3,3.3h14.1c1.8,0,3.3-1.5,3.3-3.3V97.7
		c0-2.7-3-4.3-5.2-2.7L189.7,104.7z"/>
</g>
<g id="Layer_1-2_11_">
	<path class="st0" d="M232.5,111.6V75.9c0-1.8,1.5-3.3,3.3-3.3l0,0h3.2c1.9,0,3.3,1.5,3.3,3.3l0,0l0,0v35.7
		c0,8.7,6.1,15.1,13.8,15.1c7.7,0,13.9-6.4,13.9-15.1V75.9c0-1.8,1.5-3.3,3.3-3.3l0,0h3.3c1.9,0,3.3,1.5,3.3,3.3l0,0v35.8
		c0,14.4-10.4,25-23.8,25S232.5,126.1,232.5,111.6z"/>
</g>
<g id="Layer_2_12_">
	<g>
		<path class="st0" d="M277.1,75.4L241,100.3L277.1,75.4z"/>
		<path class="st0" d="M238.6,104.2l-1.9-2.7c2.2-4.1-1.5-3.4,0-4.4l34.8-23.9c1.5-1.1,3.6-0.7,4.7,0.9l0,0l1.9,2.7
			c1.1,1.5,0.7,3.6-0.9,4.7l0,0l-34.9,24.4C240.7,106.9,243,103.2,238.6,104.2z"/>
	</g>
</g>
<g id="Layer_3_11_">
	<path class="st0" d="M247.3,106.1c-0.9,0.6-1.4,1.6-1.4,2.7v6.2c0,1.8,1.5,3.3,3.3,3.3h14.1c1.8,0,3.3-1.5,3.3-3.3V99.1
		c0-2.7-3-4.3-5.2-2.7L247.3,106.1z"/>
</g>
<g id="Layer_1-2_10_">
	<path class="st0" d="M290,113.1V77.3c0-1.8,1.5-3.3,3.3-3.3l0,0h3.2c1.9,0,3.3,1.5,3.3,3.3l0,0l0,0V113c0,8.7,6.1,15.1,13.8,15.1
		c7.7,0,13.9-6.4,13.9-15.1V77.3c0-1.8,1.5-3.3,3.3-3.3l0,0h3.3c1.8,0,3.3,1.5,3.3,3.3l0,0v35.8c0,14.5-10.4,25-23.8,25
		C300.4,138.1,290,127.5,290,113.1z"/>
</g>
<g id="Layer_2_11_">
	<g>
		<path class="st0" d="M334.6,76.9l-36.1,24.9L334.6,76.9z"/>
		<path class="st0" d="M296.2,105.7l-1.9-2.7c2.2-4.1-1.5-3.4,0-4.4l34.8-23.9c1.5-1,3.6-0.7,4.7,0.9l0,0l1.9,2.7
			c1.1,1.5,0.7,3.6-0.9,4.7l0,0l-34.9,24.4C298.3,108.3,300.5,104.6,296.2,105.7z"/>
	</g>
</g>
<g id="Layer_3_10_">
	<path class="st0" d="M304.9,107.5c-0.9,0.6-1.4,1.6-1.4,2.7v6.2c0,1.8,1.5,3.3,3.3,3.3h14.1c1.8,0,3.3-1.5,3.3-3.3v-15.9
		c0-2.7-3-4.3-5.2-2.7L304.9,107.5z"/>
</g>
<g id="Layer_1-2_9_">
	<path class="st0" d="M349,112.3V76.6c0-1.8,1.5-3.3,3.3-3.3l0,0h3.2c1.9,0,3.3,1.5,3.3,3.3l0,0l0,0v35.7c0,8.7,6.1,15.1,13.8,15.1
		s13.9-6.4,13.9-15.1V76.6c0-1.8,1.5-3.3,3.3-3.3l0,0h3.3c1.9,0,3.3,1.5,3.3,3.3l0,0v35.8c0,14.4-10.4,25-23.8,25
		S349,126.8,349,112.3z"/>
</g>
<g id="Layer_2_10_">
	<g>
		<path class="st0" d="M393.7,76.2L357.5,101L393.7,76.2z"/>
		<path class="st0" d="M355.2,104.9l-1.9-2.7c2.2-4.1-1.5-3.4,0-4.4l34.8-23.9c1.5-1,3.6-0.7,4.7,0.9l0,0l1.9,2.7
			c1.1,1.5,0.7,3.6-0.9,4.7l0,0l-34.9,24.4C357.3,107.6,359.5,103.9,355.2,104.9z"/>
	</g>
</g>
<g id="Layer_3_9_">
	<path class="st0" d="M363.9,106.8c-0.9,0.6-1.4,1.6-1.4,2.7v6.2c0,1.8,1.5,3.3,3.3,3.3h14.1c1.8,0,3.3-1.5,3.3-3.3V99.8
		c0-2.7-3-4.3-5.2-2.7L363.9,106.8z"/>
</g>
<g id="Layer_1-2_8_">
	<path class="st0" d="M406.6,113.8V78c0-1.8,1.5-3.3,3.3-3.3l0,0h3.2c1.8,0,3.3,1.5,3.3,3.3l0,0l0,0v35.7c0,8.7,6.1,15.1,13.8,15.1
		c7.7,0,13.9-6.4,13.9-15.1V78c0-1.8,1.5-3.3,3.3-3.3l0,0h3.3c1.8,0,3.3,1.5,3.3,3.3l0,0v35.8c0,14.4-10.4,25-23.8,25
		S406.6,128.2,406.6,113.8z"/>
</g>
<g id="Layer_2_9_">
	<g>
		<path class="st0" d="M451.2,77.6l-36.1,24.9L451.2,77.6z"/>
		<path class="st0" d="M412.8,106.4l-1.9-2.7c2.2-4.1-1.5-3.4,0-4.4l34.8-23.9c1.5-1.1,3.6-0.7,4.7,0.9l0,0l1.9,2.7
			c1.1,1.5,0.7,3.6-0.9,4.7l0,0L416.4,108C414.8,109,417.1,105.3,412.8,106.4z"/>
	</g>
</g>
<g id="Layer_3_8_">
	<path class="st0" d="M421.4,108.2c-0.9,0.6-1.4,1.6-1.4,2.7v6.2c0,1.8,1.5,3.3,3.3,3.3h14.1c1.8,0,3.3-1.5,3.3-3.3v-15.9
		c0-2.7-3-4.3-5.2-2.7L421.4,108.2z"/>
</g>
<g id="Layer_1-2_31_">
	<path class="st0" d="M0.4,177.9v-35.8c0-1.8,1.5-3.3,3.3-3.3l0,0H7c1.9,0,3.3,1.5,3.3,3.3l0,0l0,0v35.7c0,8.7,6.1,15.1,13.8,15.1
		S38,186.6,38,177.9v-35.7c0-1.8,1.5-3.3,3.3-3.3l0,0h3.3c1.9,0,3.3,1.5,3.3,3.3l0,0v35.8c0,14.4-10.4,25-23.8,25
		S0.4,192.4,0.4,177.9z"/>
</g>
<g id="Layer_2_32_">
	<g>
		<path class="st0" d="M45,141.7L8.9,166.6L45,141.7z"/>
		<path class="st0" d="M6.5,170.5l-1.9-2.7c2.2-4.1-1.5-3.4,0-4.4l34.8-23.9c1.5-1,3.6-0.7,4.7,0.9l0,0l1.9,2.7
			c1,1.5,0.7,3.6-0.9,4.7l0,0l-34.9,24.4C8.6,173.2,10.9,169.5,6.5,170.5z"/>
	</g>
</g>
<g id="Layer_3_31_">
	<path class="st0" d="M15.2,172.3c-0.9,0.6-1.4,1.6-1.4,2.7v6.2c0,1.8,1.5,3.3,3.3,3.3h14.1c1.8,0,3.3-1.5,3.3-3.3v-15.9
		c0-2.7-3-4.3-5.2-2.7L15.2,172.3z"/>
</g>
<g id="Layer_1-2_30_">
	<path class="st0" d="M57.9,179.3v-35.8c0-1.8,1.5-3.3,3.3-3.3l0,0h3.2c1.8,0,3.3,1.5,3.3,3.3l0,0l0,0v35.7
		c0,8.7,6.1,15.1,13.8,15.1s13.9-6.4,13.9-15.1v-35.7c0-1.8,1.5-3.3,3.3-3.3l0,0h3.3c1.8,0,3.3,1.5,3.3,3.3l0,0v35.8
		c0,14.4-10.4,25-23.8,25S57.9,193.8,57.9,179.3z"/>
</g>
<g id="Layer_2_31_">
	<g>
		<path class="st0" d="M102.6,143.1L66.4,168L102.6,143.1z"/>
		<path class="st0" d="M64.1,171.9l-1.9-2.7c2.2-4.1-1.5-3.4,0-4.4L97,140.9c1.5-1.1,3.6-0.7,4.7,0.9l0,0l1.9,2.7
			c1.1,1.5,0.7,3.6-0.9,4.7l0,0l-34.9,24.4C66.2,174.6,68.4,170.9,64.1,171.9z"/>
	</g>
</g>
<g id="Layer_3_30_">
	<path class="st0" d="M72.8,173.8c-0.9,0.6-1.4,1.6-1.4,2.7v6.2c0,1.8,1.5,3.3,3.3,3.3h14.1c1.8,0,3.3-1.5,3.3-3.3v-15.9
		c0-2.7-3-4.3-5.2-2.7L72.8,173.8z"/>
</g>
<g id="Layer_1-2_29_">
	<path class="st0" d="M117,178.6v-35.8c0-1.8,1.5-3.3,3.3-3.3l0,0h3.2c1.8,0,3.3,1.5,3.3,3.3l0,0l0,0v35.7c0,8.7,6.1,15.1,13.8,15.1
		c7.7,0,13.9-6.4,13.9-15.1v-35.7c0-1.8,1.5-3.3,3.3-3.3l0,0h3.3c1.9,0,3.3,1.5,3.3,3.3l0,0v35.8c0,14.4-10.4,25-23.8,25
		C127.3,203.7,117,193.1,117,178.6z"/>
</g>
<g id="Layer_2_30_">
	<g>
		<path class="st0" d="M161.6,142.4l-36.1,24.9L161.6,142.4z"/>
		<path class="st0" d="M123.1,171.2l-1.9-2.7c2.2-4.1-1.5-3.4,0-4.4l34.8-23.9c1.5-1.1,3.6-0.7,4.7,0.9l0,0l1.9,2.7
			c1.1,1.5,0.7,3.6-0.9,4.7l0,0l-34.9,24.4C125.2,173.9,127.5,170.2,123.1,171.2z"/>
	</g>
</g>
<g id="Layer_3_29_">
	<path class="st0" d="M131.8,173c-0.9,0.6-1.4,1.6-1.4,2.7v6.2c0,1.8,1.5,3.3,3.3,3.3h14.1c1.8,0,3.3-1.5,3.3-3.3V166
		c0-2.7-3-4.3-5.2-2.7L131.8,173z"/>
</g>
<g id="Layer_1-2_28_">
	<path class="st0" d="M174.5,180v-35.8c0-1.8,1.5-3.3,3.3-3.3l0,0h3.2c1.9,0,3.3,1.5,3.3,3.3l0,0l0,0V180c0,8.7,6.1,15.1,13.8,15.1
		s13.9-6.4,13.9-15.1v-35.7c0-1.8,1.5-3.3,3.3-3.3l0,0h3.3c1.8,0,3.3,1.5,3.3,3.3l0,0V180c0,14.4-10.4,25-23.8,25
		S174.5,194.5,174.5,180z"/>
</g>
<g id="Layer_2_29_">
	<g>
		<path class="st0" d="M219.1,143.8L183,168.7L219.1,143.8z"/>
		<path class="st0" d="M180.7,172.6l-1.9-2.7c2.2-4.1-1.5-3.4,0-4.4l34.8-23.9c1.5-1.1,3.6-0.7,4.7,0.9l0,0l1.9,2.7
			c1.1,1.5,0.7,3.6-0.9,4.7l0,0l-34.9,24.4C182.8,175.3,185,171.6,180.7,172.6z"/>
	</g>
</g>
<g id="Layer_3_28_">
	<path class="st0" d="M189.4,174.5c-0.9,0.6-1.4,1.6-1.4,2.7v6.2c0,1.8,1.5,3.3,3.3,3.3h14.1c1.8,0,3.3-1.5,3.3-3.3v-15.9
		c0-2.7-3-4.3-5.2-2.7L189.4,174.5z"/>
</g>
<g id="Layer_1-2_27_">
	<path class="st0" d="M232.1,181.4v-35.8c0-1.8,1.5-3.3,3.3-3.3l0,0h3.2c1.9,0,3.3,1.5,3.3,3.3l0,0l0,0v35.7
		c0,8.7,6.1,15.1,13.8,15.1s13.9-6.4,13.9-15.1v-35.7c0-1.8,1.5-3.3,3.3-3.3l0,0h3.3c1.9,0,3.3,1.5,3.3,3.3l0,0v35.8
		c0,14.4-10.4,25-23.8,25C242.5,206.4,232.1,195.8,232.1,181.4z"/>
</g>
<g id="Layer_2_28_">
	<g>
		<path class="st0" d="M276.7,145.2l-36.1,24.9L276.7,145.2z"/>
		<path class="st0" d="M238.2,174l-1.9-2.7c2.2-4.1-1.5-3.4,0-4.4l34.8-23.9c1.5-1.1,3.6-0.7,4.7,0.9l0,0l1.9,2.7
			c1,1.5,0.7,3.6-0.9,4.7l0,0l-34.9,24.4C240.3,176.6,242.6,172.9,238.2,174z"/>
	</g>
</g>
<g id="Layer_3_27_">
	<path class="st0" d="M246.9,175.8c-0.9,0.6-1.4,1.6-1.4,2.7v6.2c0,1.8,1.5,3.3,3.3,3.3h14.1c1.8,0,3.3-1.5,3.3-3.3v-15.9
		c0-2.7-3-4.3-5.2-2.7L246.9,175.8z"/>
</g>
<g id="Layer_1-2_26_">
	<path class="st0" d="M289.6,182.8V147c0-1.8,1.5-3.3,3.3-3.3l0,0h3.2c1.9,0,3.3,1.5,3.3,3.3l0,0l0,0v35.7c0,8.7,6.1,15.1,13.8,15.1
		s13.9-6.4,13.9-15.1V147c0-1.8,1.5-3.3,3.3-3.3l0,0h3.3c1.9,0,3.3,1.5,3.3,3.3l0,0v35.8c0,14.4-10.4,25-23.8,25
		S289.6,197.3,289.6,182.8z"/>
</g>
<g id="Layer_2_27_">
	<g>
		<path class="st0" d="M334.3,146.6l-36.1,24.9L334.3,146.6z"/>
		<path class="st0" d="M295.8,175.4l-1.9-2.7c2.2-4.1-1.5-3.4,0-4.4l34.8-23.9c1.5-1.1,3.6-0.7,4.7,0.9l0,0l1.9,2.7
			c1,1.5,0.7,3.6-0.9,4.7l0,0L299.4,177C297.9,178.1,300.1,174.4,295.8,175.4z"/>
	</g>
</g>
<g id="Layer_3_26_">
	<path class="st0" d="M304.5,177.2c-0.9,0.6-1.4,1.6-1.4,2.7v6.2c0,1.8,1.5,3.3,3.3,3.3h14.1c1.8,0,3.3-1.5,3.3-3.3v-15.9
		c0-2.7-3-4.3-5.2-2.7L304.5,177.2z"/>
</g>
<g id="Layer_1-2_25_">
	<path class="st0" d="M348.7,182.1v-35.8c0-1.8,1.5-3.3,3.3-3.3l0,0h3.2c1.9,0,3.3,1.5,3.3,3.3l0,0l0,0v35.7
		c0,8.7,6.1,15.1,13.8,15.1c7.7,0,13.9-6.4,13.9-15.1v-35.7c0-1.8,1.5-3.3,3.3-3.3l0,0h3.3c1.9,0,3.3,1.5,3.3,3.3l0,0v35.8
		c0,14.4-10.4,25-23.8,25C359,207.1,348.7,196.6,348.7,182.1z"/>
</g>
<g id="Layer_2_26_">
	<g>
		<path class="st0" d="M393.3,145.9l-36.1,24.9L393.3,145.9z"/>
		<path class="st0" d="M354.8,174.7l-1.9-2.7c2.2-4.1-1.5-3.4,0-4.4l34.8-23.9c1.5-1,3.6-0.7,4.7,0.9l0,0l1.9,2.7
			c1,1.5,0.7,3.6-0.9,4.7l0,0l-34.9,24.4C356.9,177.3,359.2,173.6,354.8,174.7z"/>
	</g>
</g>
<g id="Layer_3_25_">
	<path class="st0" d="M363.5,176.5c-0.9,0.6-1.4,1.6-1.4,2.7v6.2c0,1.8,1.5,3.3,3.3,3.3h14.1c1.8,0,3.3-1.5,3.3-3.3v-15.9
		c0-2.7-3-4.3-5.2-2.7L363.5,176.5z"/>
</g>
<g id="Layer_1-2_24_">
	<path class="st0" d="M406.2,183.5v-35.8c0-1.8,1.5-3.3,3.3-3.3l0,0h3.2c1.9,0,3.3,1.5,3.3,3.3l0,0l0,0v35.7
		c0,8.7,6.1,15.1,13.8,15.1c7.7,0,13.9-6.4,13.9-15.1v-35.7c0-1.8,1.5-3.3,3.3-3.3l0,0h3.3c1.9,0,3.3,1.5,3.3,3.3l0,0v35.8
		c0,14.4-10.4,25-23.8,25C416.6,208.6,406.2,198,406.2,183.5z"/>
</g>
<g id="Layer_2_25_">
	<g>
		<path class="st0" d="M450.8,147.3l-36.1,24.9L450.8,147.3z"/>
		<path class="st0" d="M412.4,176.1l-1.9-2.7c2.2-4.1-1.5-3.4,0-4.4l34.8-23.9c1.5-1.1,3.6-0.7,4.7,0.9l0,0l1.9,2.7
			c1,1.5,0.7,3.6-0.9,4.7l0,0L416,177.7C414.5,178.8,416.7,175.1,412.4,176.1z"/>
	</g>
</g>
<g id="Layer_3_24_">
	<path class="st0" d="M421.1,177.9c-0.9,0.6-1.4,1.6-1.4,2.7v6.2c0,1.8,1.5,3.3,3.3,3.3h14.1c1.8,0,3.3-1.5,3.3-3.3v-15.9
		c0-2.7-3-4.3-5.2-2.7L421.1,177.9z"/>
</g>
<g id="Layer_1-2_23_">
	<path class="st0" d="M1.1,246.9v-35.8c0-1.8,1.5-3.3,3.3-3.3l0,0h3.2c1.8,0,3.3,1.5,3.3,3.3l0,0l0,0v35.7c0,8.7,6.1,15.1,13.8,15.1
		s13.9-6.4,13.9-15.1v-35.7c0-1.8,1.5-3.3,3.3-3.3l0,0h3.3c1.8,0,3.3,1.5,3.3,3.3l0,0v35.8c0,14.5-10.4,25-23.8,25
		S1.1,261.4,1.1,246.9z"/>
</g>
<g id="Layer_2_24_">
	<g>
		<path class="st0" d="M45.8,210.8L9.6,235.6L45.8,210.8z"/>
		<path class="st0" d="M7.3,239.5l-1.9-2.7c2.2-4.1-1.5-3.4,0-4.4l34.8-23.9c1.5-1.1,3.6-0.7,4.7,0.9l0,0l1.9,2.7
			c1.1,1.5,0.7,3.6-0.9,4.7l0,0l-34.9,24.4C9.4,242.2,11.6,238.5,7.3,239.5z"/>
	</g>
</g>
<g id="Layer_3_23_">
	<path class="st0" d="M16,241.4c-0.9,0.6-1.4,1.6-1.4,2.7v6.2c0,1.8,1.5,3.3,3.3,3.3H32c1.8,0,3.3-1.5,3.3-3.3v-15.9
		c0-2.7-3-4.3-5.2-2.7L16,241.4z"/>
</g>
<g id="Layer_1-2_22_">
	<path class="st0" d="M58.7,248.4v-35.8c0-1.8,1.5-3.3,3.3-3.3l0,0h3.2c1.8,0,3.3,1.5,3.3,3.3l0,0l0,0v35.7
		c0,8.7,6.1,15.1,13.8,15.1s13.9-6.4,13.9-15.1v-35.7c0-1.8,1.5-3.3,3.3-3.3l0,0h3.3c1.8,0,3.3,1.5,3.3,3.3l0,0v35.8
		c0,14.4-10.4,25-23.8,25S58.7,262.8,58.7,248.4z"/>
</g>
<g id="Layer_2_23_">
	<g>
		<path class="st0" d="M103.3,212.2L67.2,237L103.3,212.2z"/>
		<path class="st0" d="M64.9,241l-1.9-2.7c2.2-4.1-1.5-3.4,0-4.4L97.7,210c1.5-1.1,3.6-0.7,4.7,0.9l0,0l1.9,2.7
			c1.1,1.5,0.7,3.6-0.9,4.7l0,0l-34.9,24.4C66.9,243.6,69.2,239.9,64.9,241z"/>
	</g>
</g>
<g id="Layer_3_22_">
	<path class="st0" d="M73.5,242.8c-0.9,0.6-1.4,1.6-1.4,2.7v6.2c0,1.8,1.5,3.3,3.3,3.3h14.1c1.8,0,3.3-1.5,3.3-3.3v-15.9
		c0-2.7-3-4.3-5.2-2.7L73.5,242.8z"/>
</g>
<g id="Layer_1-2_21_">
	<path class="st0" d="M117.7,247.7v-35.8c0-1.8,1.5-3.3,3.3-3.3l0,0h3.2c1.9,0,3.3,1.5,3.3,3.3l0,0l0,0v35.7
		c0,8.7,6.1,15.1,13.8,15.1c7.7,0,13.9-6.4,13.9-15.1v-35.7c0-1.8,1.5-3.3,3.3-3.3l0,0h3.3c1.9,0,3.3,1.5,3.3,3.3l0,0v35.8
		c0,14.4-10.4,25-23.8,25C128.1,272.7,117.7,262.1,117.7,247.7z"/>
</g>
<g id="Layer_2_22_">
	<g>
		<path class="st0" d="M162.3,211.5l-36.1,24.9L162.3,211.5z"/>
		<path class="st0" d="M123.9,240.3l-1.9-2.7c2.2-4.1-1.5-3.4,0-4.4l34.7-23.9c1.5-1.1,3.6-0.7,4.7,0.9l0,0l1.9,2.7
			c1,1.5,0.7,3.6-0.9,4.7l0,0l-34.9,24.4C126,242.9,128.2,239.2,123.9,240.3z"/>
	</g>
</g>
<g id="Layer_3_21_">
	<path class="st0" d="M132.6,242.1c-0.9,0.6-1.4,1.6-1.4,2.7v6.2c0,1.8,1.5,3.3,3.3,3.3h14.1c1.8,0,3.3-1.5,3.3-3.3v-15.9
		c0-2.7-3-4.3-5.2-2.7L132.6,242.1z"/>
</g>
<g id="Layer_1-2_20_">
	<path class="st0" d="M175.3,249.1v-35.8c0-1.8,1.5-3.3,3.3-3.3l0,0h3.2c1.8,0,3.3,1.5,3.3,3.3l0,0l0,0V249
		c0,8.7,6.1,15.1,13.8,15.1c7.7,0,13.9-6.4,13.9-15.1v-35.7c0-1.8,1.5-3.3,3.3-3.3l0,0h3.3c1.9,0,3.3,1.5,3.3,3.3l0,0v35.8
		c0,14.4-10.4,25-23.8,25C185.7,274.1,175.3,263.5,175.3,249.1z"/>
</g>
<g id="Layer_2_21_">
	<g>
		<path class="st0" d="M219.9,212.9l-36.1,24.9L219.9,212.9z"/>
		<path class="st0" d="M181.4,241.7l-1.9-2.7c2.2-4.1-1.5-3.4,0-4.4l34.8-23.9c1.5-1.1,3.6-0.7,4.7,0.9l0,0l1.9,2.7
			c1.1,1.5,0.7,3.6-0.9,4.7l0,0L185,243.3C183.5,244.3,185.8,240.6,181.4,241.7z"/>
	</g>
</g>
<g id="Layer_3_20_">
	<path class="st0" d="M190.1,243.5c-0.9,0.6-1.4,1.6-1.4,2.7v6.2c0,1.8,1.5,3.3,3.3,3.3h14.1c1.8,0,3.3-1.5,3.3-3.3v-15.9
		c0-2.7-3-4.3-5.2-2.7L190.1,243.5z"/>
</g>
<g id="Layer_1-2_19_">
	<path class="st0" d="M232.8,250.4v-35.8c0-1.8,1.5-3.3,3.3-3.3l0,0h3.2c1.9,0,3.3,1.5,3.3,3.3l0,0l0,0v35.7
		c0,8.7,6.1,15.1,13.8,15.1c7.7,0,13.9-6.4,13.9-15.1v-35.7c0-1.8,1.5-3.3,3.3-3.3l0,0h3.3c1.9,0,3.3,1.5,3.3,3.3l0,0v35.8
		c0,14.5-10.4,25-23.8,25C243.2,275.5,232.8,264.9,232.8,250.4z"/>
</g>
<g id="Layer_2_20_">
	<g>
		<path class="st0" d="M277.5,214.2l-36.1,24.9L277.5,214.2z"/>
		<path class="st0" d="M239,243l-1.9-2.7c2.2-4.1-1.5-3.4,0-4.4l34.8-23.9c1.5-1,3.6-0.7,4.7,0.9l0,0l1.9,2.7c1,1.5,0.7,3.6-0.9,4.7
			l0,0l-34.9,24.4C241.1,245.7,243.3,242,239,243z"/>
	</g>
</g>
<g id="Layer_3_19_">
	<path class="st0" d="M247.7,244.9c-0.9,0.6-1.4,1.6-1.4,2.7v6.2c0,1.8,1.5,3.3,3.3,3.3h14.1c1.8,0,3.3-1.5,3.3-3.3v-15.9
		c0-2.7-3-4.3-5.2-2.7L247.7,244.9z"/>
</g>
<g id="Layer_1-2_18_">
	<path class="st0" d="M290.4,251.9v-35.8c0-1.8,1.5-3.3,3.3-3.3l0,0h3.2c1.9,0,3.3,1.5,3.3,3.3l0,0l0,0v35.7
		c0,8.7,6.1,15.1,13.8,15.1c7.7,0,13.9-6.4,13.9-15.1v-35.7c0-1.8,1.5-3.3,3.3-3.3l0,0h3.3c1.9,0,3.3,1.5,3.3,3.3l0,0v35.8
		c0,14.4-10.4,25-23.8,25C300.8,276.9,290.4,266.3,290.4,251.9z"/>
</g>
<g id="Layer_2_19_">
	<g>
		<path class="st0" d="M335,215.7l-36.1,24.9L335,215.7z"/>
		<path class="st0" d="M296.6,244.5l-1.9-2.7c2.2-4.1-1.5-3.4,0-4.4l34.8-23.9c1.5-1.1,3.6-0.7,4.7,0.9l0,0l1.9,2.7
			c1,1.5,0.7,3.6-0.9,4.7l0,0l-34.9,24.4C298.6,247.1,300.9,243.4,296.6,244.5z"/>
	</g>
</g>
<g id="Layer_3_18_">
	<path class="st0" d="M305.2,246.3c-0.9,0.6-1.4,1.6-1.4,2.7v6.2c0,1.8,1.5,3.3,3.3,3.3h14.1c1.8,0,3.3-1.5,3.3-3.3v-15.9
		c0-2.7-3-4.3-5.2-2.7L305.2,246.3z"/>
</g>
<g id="Layer_1-2_17_">
	<path class="st0" d="M349.4,251.1v-35.8c0-1.8,1.5-3.3,3.3-3.3l0,0h3.2c1.9,0,3.3,1.5,3.3,3.3l0,0l0,0v35.7
		c0,8.7,6.1,15.1,13.8,15.1c7.7,0,13.9-6.4,13.9-15.1v-35.7c0-1.8,1.5-3.3,3.3-3.3l0,0h3.3c1.9,0,3.3,1.5,3.3,3.3l0,0v35.8
		c0,14.5-10.4,25-23.8,25C359.8,276.2,349.4,265.6,349.4,251.1z"/>
</g>
<g id="Layer_2_18_">
	<g>
		<path class="st0" d="M394,215l-36.1,24.9L394,215z"/>
		<path class="st0" d="M355.6,243.7l-1.9-2.7c2.2-4.1-1.5-3.4,0-4.4l34.8-23.9c1.5-1,3.6-0.7,4.7,0.9l0,0l1.9,2.7
			c1,1.5,0.7,3.6-0.9,4.7l0,0l-34.9,24.4C357.7,246.4,359.9,242.7,355.6,243.7z"/>
	</g>
</g>
<g id="Layer_3_17_">
	<path class="st0" d="M364.3,245.6c-0.9,0.6-1.4,1.6-1.4,2.7v6.2c0,1.8,1.5,3.3,3.3,3.3h14.1c1.8,0,3.3-1.5,3.3-3.3v-15.9
		c0-2.7-3-4.3-5.2-2.7L364.3,245.6z"/>
</g>
<g id="Layer_1-2_16_">
	<path class="st0" d="M407,252.6v-35.8c0-1.8,1.5-3.3,3.3-3.3l0,0h3.2c1.9,0,3.3,1.5,3.3,3.3l0,0l0,0v35.7c0,8.7,6.1,15.1,13.8,15.1
		c7.7,0,13.9-6.4,13.9-15.1v-35.7c0-1.8,1.5-3.3,3.3-3.3l0,0h3.3c1.9,0,3.3,1.5,3.3,3.3l0,0v35.8c0,14.4-10.4,25-23.8,25
		C417.4,277.6,407,267,407,252.6z"/>
</g>
<g id="Layer_2_17_">
	<g>
		<path class="st0" d="M451.6,216.4l-36.1,24.9L451.6,216.4z"/>
		<path class="st0" d="M413.1,245.2l-1.9-2.7c2.2-4.1-1.5-3.4,0-4.4l34.8-23.9c1.5-1.1,3.6-0.7,4.7,0.9l0,0l1.9,2.7
			c1,1.5,0.7,3.6-0.9,4.7l0,0l-34.9,24.4C415.2,247.8,417.5,244.1,413.1,245.2z"/>
	</g>
</g>
<g id="Layer_3_16_">
	<path class="st0" d="M421.8,247c-0.9,0.6-1.4,1.6-1.4,2.7v6.2c0,1.8,1.5,3.3,3.3,3.3h14.1c1.8,0,3.3-1.5,3.3-3.3V240
		c0-2.7-3-4.3-5.2-2.7L421.8,247z"/>
</g>
<g id="Layer_1-2_63_">
	<path class="st0" d="M0.2,321.6v-35.8c0-1.8,1.5-3.3,3.3-3.3l0,0h3.2c1.8,0,3.3,1.5,3.3,3.3l0,0l0,0v35.7c0,8.7,6.1,15.1,13.8,15.1
		s13.9-6.4,13.9-15.1v-35.7c0-1.8,1.5-3.3,3.3-3.3l0,0h3.3c1.8,0,3.3,1.5,3.3,3.3l0,0v35.8c0,14.5-10.4,25-23.8,25
		S0.2,336.1,0.2,321.6z"/>
</g>
<g id="Layer_2_64_">
	<g>
		<path class="st0" d="M44.8,285.4L8.7,310.3L44.8,285.4z"/>
		<path class="st0" d="M6.3,314.2l-1.9-2.7c2.2-4.1-1.5-3.4,0-4.4l34.8-23.9c1.5-1,3.6-0.7,4.7,0.9l0,0l1.9,2.7
			c1,1.5,0.7,3.6-0.9,4.7l0,0L10,315.8C8.4,316.9,10.7,313.2,6.3,314.2z"/>
	</g>
</g>
<g id="Layer_3_63_">
	<path class="st0" d="M15,316c-0.9,0.6-1.4,1.6-1.4,2.7v6.2c0,1.8,1.5,3.3,3.3,3.3H31c1.8,0,3.3-1.5,3.3-3.3V309
		c0-2.7-3-4.3-5.2-2.7L15,316z"/>
</g>
<g id="Layer_1-2_62_">
	<path class="st0" d="M57.8,323v-35.8c0-1.8,1.5-3.3,3.3-3.3l0,0h3.2c1.9,0,3.3,1.5,3.3,3.3l0,0l0,0V323c0,8.7,6.1,15.1,13.8,15.1
		s13.9-6.4,13.9-15.1v-35.7c0-1.8,1.5-3.3,3.3-3.3l0,0h3.3c1.8,0,3.3,1.5,3.3,3.3l0,0V323c0,14.5-10.4,25-23.8,25
		S57.8,337.5,57.8,323z"/>
</g>
<g id="Layer_2_63_">
	<g>
		<path class="st0" d="M102.4,286.8l-36.1,24.9L102.4,286.8z"/>
		<path class="st0" d="M63.9,315.6l-1.9-2.7c2.2-4.1-1.5-3.4,0-4.4l34.8-23.9c1.5-1,3.6-0.7,4.7,0.9l0,0l1.9,2.7
			c1.1,1.5,0.7,3.6-0.9,4.7l0,0l-34.9,24.4C66,318.3,68.2,314.6,63.9,315.6z"/>
	</g>
</g>
<g id="Layer_3_62_">
	<path class="st0" d="M72.6,317.5c-0.9,0.6-1.4,1.6-1.4,2.7v6.2c0,1.8,1.5,3.3,3.3,3.3h14.1c1.8,0,3.3-1.5,3.3-3.3v-15.9
		c0-2.7-3-4.3-5.2-2.7L72.6,317.5z"/>
</g>
<g id="Layer_1-2_61_">
	<path class="st0" d="M116.8,322.3v-35.8c0-1.8,1.5-3.3,3.3-3.3l0,0h3.2c1.8,0,3.3,1.5,3.3,3.3l0,0l0,0v35.7
		c0,8.7,6.1,15.1,13.8,15.1c7.7,0,13.9-6.4,13.9-15.1v-35.7c0-1.8,1.5-3.3,3.3-3.3l0,0h3.3c1.9,0,3.3,1.5,3.3,3.3l0,0v35.8
		c0,14.5-10.4,25-23.8,25S116.8,336.8,116.8,322.3z"/>
</g>
<g id="Layer_2_62_">
	<g>
		<path class="st0" d="M161.4,286.1L125.3,311L161.4,286.1z"/>
		<path class="st0" d="M122.9,314.9l-1.9-2.7c2.2-4.1-1.5-3.4,0-4.4l34.7-23.9c1.5-1,3.6-0.7,4.7,0.9l0,0l1.9,2.7
			c1,1.5,0.7,3.6-0.9,4.7l0,0l-34.9,24.4C125,317.6,127.3,313.9,122.9,314.9z"/>
	</g>
</g>
<g id="Layer_3_61_">
	<path class="st0" d="M131.6,316.7c-0.9,0.6-1.4,1.6-1.4,2.7v6.2c0,1.8,1.5,3.3,3.3,3.3h14.1c1.8,0,3.3-1.5,3.3-3.3v-15.9
		c0-2.7-3-4.3-5.2-2.7L131.6,316.7z"/>
</g>
<g id="Layer_1-2_60_">
	<path class="st0" d="M174.3,323.7V288c0-1.8,1.5-3.3,3.3-3.3l0,0h3.2c1.9,0,3.3,1.5,3.3,3.3l0,0l0,0v35.7c0,8.7,6.1,15.1,13.8,15.1
		c7.7,0,13.9-6.4,13.9-15.1V288c0-1.8,1.5-3.3,3.3-3.3l0,0h3.3c1.9,0,3.3,1.5,3.3,3.3l0,0v35.8c0,14.5-10.4,25-23.8,25
		C184.7,348.8,174.3,338.2,174.3,323.7z"/>
</g>
<g id="Layer_2_61_">
	<g>
		<path class="st0" d="M219,287.5l-36.1,24.9L219,287.5z"/>
		<path class="st0" d="M180.5,316.3l-1.9-2.7c2.2-4.1-1.5-3.4,0-4.4l34.8-23.9c1.5-1,3.6-0.7,4.7,0.9l0,0l1.9,2.7
			c1.1,1.5,0.7,3.6-0.9,4.7l0,0l-34.9,24.4C182.6,319,184.8,315.3,180.5,316.3z"/>
	</g>
</g>
<g id="Layer_3_60_">
	<path class="st0" d="M189.2,318.2c-0.9,0.6-1.4,1.6-1.4,2.7v6.2c0,1.8,1.5,3.3,3.3,3.3h14.1c1.8,0,3.3-1.5,3.3-3.3v-15.9
		c0-2.7-3-4.3-5.2-2.7L189.2,318.2z"/>
</g>
<g id="Layer_1-2_59_">
	<path class="st0" d="M231.9,325.1v-35.8c0-1.8,1.5-3.3,3.3-3.3l0,0h3.2c1.8,0,3.3,1.5,3.3,3.3l0,0l0,0v35.7
		c0,8.7,6.1,15.1,13.8,15.1c7.7,0,13.9-6.4,13.9-15.1v-35.7c0-1.8,1.5-3.3,3.3-3.3l0,0h3.3c1.9,0,3.3,1.5,3.3,3.3l0,0v35.8
		c0,14.5-10.4,25-23.8,25C242.3,350.1,231.9,339.6,231.9,325.1z"/>
</g>
<g id="Layer_2_60_">
	<g>
		<path class="st0" d="M276.5,288.9l-36.1,24.9L276.5,288.9z"/>
		<path class="st0" d="M238,317.7l-1.9-2.7c2.2-4.1-1.5-3.4,0-4.4l34.8-23.9c1.5-1.1,3.6-0.7,4.7,0.9l0,0l1.9,2.7
			c1.1,1.5,0.7,3.6-0.9,4.7l0,0l-34.9,24.4C240.1,320.3,242.4,316.6,238,317.7z"/>
	</g>
</g>
<g id="Layer_3_59_">
	<path class="st0" d="M246.7,319.5c-0.9,0.6-1.4,1.6-1.4,2.7v6.2c0,1.8,1.5,3.3,3.3,3.3h14.1c1.8,0,3.3-1.5,3.3-3.3v-15.9
		c0-2.7-3-4.3-5.2-2.7L246.7,319.5z"/>
</g>
<g id="Layer_1-2_58_">
	<path class="st0" d="M289.5,326.5v-35.8c0-1.8,1.5-3.3,3.3-3.3l0,0h3.2c1.8,0,3.3,1.5,3.3,3.3l0,0l0,0v35.7
		c0,8.7,6.1,15.1,13.8,15.1c7.7,0,13.9-6.4,13.9-15.1v-35.7c0-1.8,1.5-3.3,3.3-3.3l0,0h3.3c1.8,0,3.3,1.5,3.3,3.3l0,0v35.8
		c0,14.5-10.4,25-23.8,25S289.5,341,289.5,326.5z"/>
</g>
<g id="Layer_2_59_">
	<g>
		<path class="st0" d="M334.1,290.3L298,315.2L334.1,290.3z"/>
		<path class="st0" d="M295.6,319.1l-1.9-2.7c2.2-4.1-1.5-3.4,0-4.4l34.8-23.9c1.5-1,3.6-0.7,4.7,0.9l0,0l1.9,2.7
			c1.1,1.5,0.7,3.6-0.9,4.7l0,0l-34.9,24.4C297.7,321.8,299.9,318.1,295.6,319.1z"/>
	</g>
</g>
<g id="Layer_3_58_">
	<path class="st0" d="M304.3,320.9c-0.9,0.6-1.4,1.6-1.4,2.7v6.2c0,1.8,1.5,3.3,3.3,3.3h14.1c1.8,0,3.3-1.5,3.3-3.3v-15.9
		c0-2.7-3-4.3-5.2-2.7L304.3,320.9z"/>
</g>
<g id="Layer_1-2_57_">
	<path class="st0" d="M348.5,325.8V290c0-1.8,1.5-3.3,3.3-3.3l0,0h3.2c1.9,0,3.3,1.5,3.3,3.3l0,0l0,0v35.7c0,8.7,6.1,15.1,13.8,15.1
		s13.9-6.4,13.9-15.1V290c0-1.8,1.5-3.3,3.3-3.3l0,0h3.3c1.9,0,3.3,1.5,3.3,3.3l0,0v35.8c0,14.5-10.4,25-23.8,25
		S348.5,340.3,348.5,325.8z"/>
</g>
<g id="Layer_2_58_">
	<g>
		<path class="st0" d="M393.1,289.6L357,314.5L393.1,289.6z"/>
		<path class="st0" d="M354.6,318.4l-1.9-2.7c2.2-4.1-1.5-3.4,0-4.4l34.8-23.9c1.5-1,3.6-0.7,4.7,0.9l0,0l1.9,2.7
			c1,1.5,0.7,3.6-0.9,4.7l0,0L358.2,320C356.7,321.1,359,317.4,354.6,318.4z"/>
	</g>
</g>
<g id="Layer_3_57_">
	<path class="st0" d="M363.3,320.2c-0.9,0.6-1.4,1.6-1.4,2.7v6.2c0,1.8,1.5,3.3,3.3,3.3h14.1c1.8,0,3.3-1.5,3.3-3.3v-15.9
		c0-2.7-3-4.3-5.2-2.7L363.3,320.2z"/>
</g>
<g id="Layer_1-2_56_">
	<path class="st0" d="M406,327.2v-35.8c0-1.8,1.5-3.3,3.3-3.3l0,0h3.2c1.8,0,3.3,1.5,3.3,3.3l0,0l0,0v35.7c0,8.7,6.1,15.1,13.8,15.1
		s13.9-6.4,13.9-15.1v-35.7c0-1.8,1.5-3.3,3.3-3.3l0,0h3.3c1.9,0,3.3,1.5,3.3,3.3l0,0v35.8c0,14.5-10.4,25-23.8,25
		S406,341.7,406,327.2z"/>
</g>
<g id="Layer_2_57_">
	<g>
		<path class="st0" d="M450.7,291l-36.1,24.9L450.7,291z"/>
		<path class="st0" d="M412.2,319.8l-1.9-2.7c2.2-4.1-1.5-3.4,0-4.4l34.8-23.9c1.5-1,3.6-0.7,4.7,0.9l0,0l1.9,2.7
			c1.1,1.5,0.7,3.6-0.9,4.7l0,0l-34.9,24.4C414.3,322.5,416.5,318.8,412.2,319.8z"/>
	</g>
</g>
<g id="Layer_3_56_">
	<path class="st0" d="M420.9,321.7c-0.9,0.6-1.4,1.6-1.4,2.7v6.2c0,1.8,1.5,3.3,3.3,3.3h14.1c1.8,0,3.3-1.5,3.3-3.3v-15.9
		c0-2.7-3-4.3-5.2-2.7L420.9,321.7z"/>
</g>
<g id="Layer_1-2_55_">
	<path class="st0" d="M1,390.7v-35.8c0-1.8,1.5-3.3,3.3-3.3l0,0h3.2c1.9,0,3.3,1.5,3.3,3.3l0,0l0,0v35.7c0,8.7,6.1,15.1,13.8,15.1
		s13.9-6.4,13.9-15.1v-35.7c0-1.8,1.5-3.3,3.3-3.3l0,0h3.3c1.9,0,3.3,1.5,3.3,3.3l0,0v35.8c0,14.4-10.4,25-23.8,25S1,405.1,1,390.7z
		"/>
</g>
<g id="Layer_2_56_">
	<g>
		<path class="st0" d="M45.6,354.5L9.5,379.3L45.6,354.5z"/>
		<path class="st0" d="M7.1,383.3l-1.9-2.7c2.2-4.1-1.5-3.4,0-4.4L40,352.2c1.5-1.1,3.6-0.7,4.7,0.9l0,0l1.9,2.7
			c1,1.5,0.7,3.6-0.9,4.7l0,0l-34.9,24.4C9.2,385.9,11.4,382.2,7.1,383.3z"/>
	</g>
</g>
<g id="Layer_3_55_">
	<path class="st0" d="M15.8,385.1c-0.9,0.6-1.4,1.6-1.4,2.7v6.2c0,1.8,1.5,3.3,3.3,3.3h14.1c1.8,0,3.3-1.5,3.3-3.3v-15.9
		c0-2.7-3-4.3-5.2-2.7L15.8,385.1z"/>
</g>
<g id="Layer_1-2_54_">
	<path class="st0" d="M58.5,392.1v-35.8c0-1.8,1.5-3.3,3.3-3.3l0,0h3.2c1.8,0,3.3,1.5,3.3,3.3l0,0l0,0V392c0,8.7,6.1,15.1,13.8,15.1
		s13.9-6.4,13.9-15.1v-35.7c0-1.8,1.5-3.3,3.3-3.3l0,0h3.3c1.9,0,3.3,1.5,3.3,3.3l0,0v35.8c0,14.4-10.4,25-23.8,25
		S58.5,406.5,58.5,392.1z"/>
</g>
<g id="Layer_2_55_">
	<g>
		<path class="st0" d="M103.1,355.9L67,380.7L103.1,355.9z"/>
		<path class="st0" d="M64.7,384.7l-1.9-2.7c2.2-4.1-1.5-3.4,0-4.4l34.8-23.9c1.5-1.1,3.6-0.7,4.7,0.9l0,0l1.9,2.7
			c1,1.5,0.7,3.6-0.9,4.7l0,0l-34.9,24.4C66.7,387.3,69,383.6,64.7,384.7z"/>
	</g>
</g>
<g id="Layer_3_54_">
	<path class="st0" d="M73.4,386.5c-0.9,0.6-1.4,1.6-1.4,2.7v6.2c0,1.8,1.5,3.3,3.3,3.3h14.1c1.8,0,3.3-1.5,3.3-3.3v-15.9
		c0-2.7-3-4.3-5.2-2.7L73.4,386.5z"/>
</g>
<g id="Layer_1-2_53_">
	<path class="st0" d="M117.5,391.4v-35.8c0-1.8,1.5-3.3,3.3-3.3l0,0h3.2c1.8,0,3.3,1.5,3.3,3.3l0,0l0,0v35.7
		c0,8.7,6.1,15.1,13.8,15.1s13.9-6.4,13.9-15.1v-35.7c0-1.8,1.5-3.3,3.3-3.3l0,0h3.3c1.8,0,3.3,1.5,3.3,3.3l0,0v35.8
		c0,14.4-10.4,25-23.8,25S117.5,405.8,117.5,391.4z"/>
</g>
<g id="Layer_2_54_">
	<g>
		<path class="st0" d="M162.2,355.2L126,380L162.2,355.2z"/>
		<path class="st0" d="M123.7,384l-1.9-2.7c2.2-4.1-1.5-3.4,0-4.4l34.8-23.9c1.5-1.1,3.6-0.7,4.7,0.9l0,0l1.9,2.7
			c1.1,1.5,0.7,3.6-0.9,4.7l0,0l-34.9,24.4C125.8,386.6,128,382.9,123.7,384z"/>
	</g>
</g>
<g id="Layer_3_53_">
	<path class="st0" d="M132.4,385.8c-0.9,0.6-1.4,1.6-1.4,2.7v6.2c0,1.8,1.5,3.3,3.3,3.3h14.1c1.8,0,3.3-1.5,3.3-3.3v-15.9
		c0-2.7-3-4.3-5.2-2.7L132.4,385.8z"/>
</g>
<g id="Layer_1-2_52_">
	<path class="st0" d="M175.1,392.8V357c0-1.8,1.5-3.3,3.3-3.3l0,0h3.2c1.9,0,3.3,1.5,3.3,3.3l0,0l0,0v35.7c0,8.7,6.1,15.1,13.8,15.1
		c7.7,0,13.9-6.4,13.9-15.1V357c0-1.8,1.5-3.3,3.3-3.3l0,0h3.3c1.9,0,3.3,1.5,3.3,3.3l0,0v35.8c0,14.5-10.4,25-23.8,25
		C185.5,417.8,175.1,407.2,175.1,392.8z"/>
</g>
<g id="Layer_2_53_">
	<g>
		<path class="st0" d="M219.7,356.6l-36.1,24.9L219.7,356.6z"/>
		<path class="st0" d="M181.2,385.4l-1.9-2.7c2.2-4.1-1.5-3.4,0-4.4l34.8-23.9c1.5-1.1,3.6-0.7,4.7,0.9l0,0l1.9,2.7
			c1,1.5,0.7,3.6-0.9,4.7l0,0L184.9,387C183.3,388,185.6,384.3,181.2,385.4z"/>
	</g>
</g>
<g id="Layer_3_52_">
	<path class="st0" d="M189.9,387.2c-0.9,0.6-1.4,1.6-1.4,2.7v6.2c0,1.8,1.5,3.3,3.3,3.3h14.1c1.8,0,3.3-1.5,3.3-3.3v-15.9
		c0-2.7-3-4.3-5.2-2.7L189.9,387.2z"/>
</g>
<g id="Layer_1-2_51_">
	<path class="st0" d="M232.7,394.1v-35.8c0-1.8,1.5-3.3,3.3-3.3l0,0h3.2c1.8,0,3.3,1.5,3.3,3.3l0,0l0,0v35.7
		c0,8.7,6.1,15.1,13.8,15.1c7.7,0,13.9-6.4,13.9-15.1v-35.7c0-1.8,1.5-3.3,3.3-3.3l0,0h3.3c1.9,0,3.3,1.5,3.3,3.3l0,0v35.8
		c0,14.4-10.4,25-23.8,25C243,419.2,232.7,408.6,232.7,394.1z"/>
</g>
<g id="Layer_2_52_">
	<g>
		<path class="st0" d="M277.3,357.9l-36.1,24.9L277.3,357.9z"/>
		<path class="st0" d="M238.8,386.7l-1.9-2.7c2.2-4.1-1.5-3.4,0-4.4l34.8-23.9c1.5-1,3.6-0.7,4.7,0.9l0,0l1.9,2.7
			c1,1.5,0.7,3.6-0.9,4.7l0,0l-34.9,24.4C240.9,389.4,243.1,385.7,238.8,386.7z"/>
	</g>
</g>
<g id="Layer_3_51_">
	<path class="st0" d="M247.5,388.6c-0.9,0.6-1.4,1.6-1.4,2.7v6.2c0,1.8,1.5,3.3,3.3,3.3h14.1c1.8,0,3.3-1.5,3.3-3.3v-15.9
		c0-2.7-3-4.3-5.2-2.7L247.5,388.6z"/>
</g>
<g id="Layer_1-2_50_">
	<path class="st0" d="M290.2,395.6v-35.8c0-1.8,1.5-3.3,3.3-3.3l0,0h3.2c1.9,0,3.3,1.5,3.3,3.3l0,0l0,0v35.7
		c0,8.7,6.1,15.1,13.8,15.1s13.9-6.4,13.9-15.1v-35.7c0-1.8,1.5-3.3,3.3-3.3l0,0h3.3c1.9,0,3.3,1.5,3.3,3.3l0,0v35.8
		c0,14.4-10.4,25-23.8,25S290.2,410,290.2,395.6z"/>
</g>
<g id="Layer_2_51_">
	<g>
		<path class="st0" d="M334.8,359.4l-36.1,24.9L334.8,359.4z"/>
		<path class="st0" d="M296.4,388.2l-1.9-2.7c2.2-4.1-1.5-3.4,0-4.4l34.8-23.9c1.5-1.1,3.6-0.7,4.7,0.9l0,0l1.9,2.7
			c1.1,1.5,0.7,3.6-0.9,4.7l0,0L300,389.8C298.4,390.8,300.7,387.1,296.4,388.2z"/>
	</g>
</g>
<g id="Layer_3_50_">
	<path class="st0" d="M305.1,390c-0.9,0.6-1.4,1.6-1.4,2.7v6.2c0,1.8,1.5,3.3,3.3,3.3h14.1c1.8,0,3.3-1.5,3.3-3.3V383
		c0-2.7-3-4.3-5.2-2.7L305.1,390z"/>
</g>
<g id="Layer_1-2_49_">
	<path class="st0" d="M349.2,394.8v-35.8c0-1.8,1.5-3.3,3.3-3.3l0,0h3.2c1.9,0,3.3,1.5,3.3,3.3l0,0l0,0v35.7
		c0,8.7,6.1,15.1,13.8,15.1c7.7,0,13.9-6.4,13.9-15.1v-35.7c0-1.8,1.5-3.3,3.3-3.3l0,0h3.3c1.9,0,3.3,1.5,3.3,3.3l0,0v35.8
		c0,14.4-10.4,25-23.8,25C359.6,419.9,349.2,409.3,349.2,394.8z"/>
</g>
<g id="Layer_2_50_">
	<g>
		<path class="st0" d="M393.9,358.7l-36.1,24.9L393.9,358.7z"/>
		<path class="st0" d="M355.4,387.4l-1.9-2.7c2.2-4.1-1.5-3.4,0-4.4l34.8-23.9c1.5-1.1,3.6-0.7,4.7,0.9l0,0l1.9,2.7
			c1,1.5,0.7,3.6-0.9,4.7l0,0L359,389C357.5,390.1,359.7,386.4,355.4,387.4z"/>
	</g>
</g>
<g id="Layer_3_49_">
	<path class="st0" d="M364.1,389.3c-0.9,0.6-1.4,1.6-1.4,2.7v6.2c0,1.8,1.5,3.3,3.3,3.3h14.1c1.8,0,3.3-1.5,3.3-3.3v-15.9
		c0-2.7-3-4.3-5.2-2.7L364.1,389.3z"/>
</g>
<g id="Layer_1-2_48_">
	<path class="st0" d="M406.8,396.3v-35.8c0-1.8,1.5-3.3,3.3-3.3l0,0h3.2c1.9,0,3.3,1.5,3.3,3.3l0,0l0,0v35.7
		c0,8.7,6.1,15.1,13.8,15.1s13.9-6.4,13.9-15.1v-35.7c0-1.8,1.5-3.3,3.3-3.3l0,0h3.3c1.9,0,3.3,1.5,3.3,3.3l0,0v35.8
		c0,14.4-10.4,25-23.8,25S406.8,410.7,406.8,396.3z"/>
</g>
<g id="Layer_2_49_">
	<g>
		<path class="st0" d="M451.4,360.1l-36.1,24.9L451.4,360.1z"/>
		<path class="st0" d="M412.9,388.9l-1.9-2.7c2.2-4.1-1.5-3.4,0-4.4l34.8-23.9c1.5-1.1,3.6-0.7,4.7,0.9l0,0l1.9,2.7
			c1,1.5,0.7,3.6-0.9,4.7l0,0l-34.9,24.4C415,391.5,417.3,387.8,412.9,388.9z"/>
	</g>
</g>
<g id="Layer_3_48_">
	<path class="st0" d="M421.6,390.7c-0.9,0.6-1.4,1.6-1.4,2.7v6.2c0,1.8,1.5,3.3,3.3,3.3h14.1c1.8,0,3.3-1.5,3.3-3.3v-15.9
		c0-2.7-3-4.3-5.2-2.7L421.6,390.7z"/>
</g>
<g id="Layer_1-2_47_">
	<path class="st0" d="M0.6,460.4v-35.8c0-1.8,1.5-3.3,3.3-3.3l0,0h3.2c1.8,0,3.3,1.5,3.3,3.3l0,0l0,0v35.7c0,8.7,6.1,15.1,13.8,15.1
		s13.9-6.4,13.9-15.1v-35.7c0-1.8,1.5-3.3,3.3-3.3l0,0h3.3c1.8,0,3.3,1.5,3.3,3.3l0,0v35.8c0,14.5-10.4,25-23.8,25
		S0.6,474.9,0.6,460.4z"/>
</g>
<g id="Layer_2_48_">
	<g>
		<path class="st0" d="M45.2,424.2L9.1,449.1L45.2,424.2z"/>
		<path class="st0" d="M6.7,453l-1.9-2.7c2.2-4.1-1.5-3.4,0-4.4L39.6,422c1.5-1,3.6-0.7,4.7,0.9l0,0l1.9,2.7
			c1.1,1.5,0.7,3.6-0.9,4.7l0,0l-34.9,24.4C8.8,455.7,11.1,452,6.7,453z"/>
	</g>
</g>
<g id="Layer_3_47_">
	<path class="st0" d="M15.4,454.8c-0.9,0.6-1.4,1.6-1.4,2.7v6.2c0,1.8,1.5,3.3,3.3,3.3h14.1c1.8,0,3.3-1.5,3.3-3.3v-15.9
		c0-2.7-3-4.3-5.2-2.7L15.4,454.8z"/>
</g>
<g id="Layer_1-2_46_">
	<path class="st0" d="M58.1,461.8v-35.8c0-1.8,1.5-3.3,3.3-3.3l0,0h3.2c1.8,0,3.3,1.5,3.3,3.3l0,0l0,0v35.7
		c0,8.7,6.1,15.1,13.8,15.1s13.9-6.4,13.9-15.1v-35.7c0-1.8,1.5-3.3,3.3-3.3l0,0h3.3c1.8,0,3.3,1.5,3.3,3.3l0,0v35.8
		c0,14.4-10.4,25-23.8,25S58.1,476.3,58.1,461.8z"/>
</g>
<g id="Layer_2_47_">
	<g>
		<path class="st0" d="M102.8,425.6l-36.1,24.9L102.8,425.6z"/>
		<path class="st0" d="M64.3,454.4l-1.9-2.7c2.2-4.1-1.5-3.4,0-4.4l34.7-23.9c1.5-1,3.6-0.7,4.7,0.9l0,0l1.9,2.7
			c1.1,1.5,0.7,3.6-0.9,4.7l0,0L67.9,456C66.4,457.1,68.6,453.4,64.3,454.4z"/>
	</g>
</g>
<g id="Layer_3_46_">
	<path class="st0" d="M73,456.3c-0.9,0.6-1.4,1.6-1.4,2.7v6.2c0,1.8,1.5,3.3,3.3,3.3H89c1.8,0,3.3-1.5,3.3-3.3v-15.9
		c0-2.7-3-4.3-5.2-2.7L73,456.3z"/>
</g>
<g id="Layer_1-2_45_">
	<path class="st0" d="M117.2,461.1v-35.8c0-1.8,1.5-3.3,3.3-3.3l0,0h3.2c1.8,0,3.3,1.5,3.3,3.3l0,0l0,0v35.7
		c0,8.7,6.1,15.1,13.8,15.1s13.9-6.4,13.9-15.1v-35.7c0-1.8,1.5-3.3,3.3-3.3l0,0h3.3c1.8,0,3.3,1.5,3.3,3.3l0,0v35.8
		c0,14.5-10.4,25-23.8,25S117.2,475.6,117.2,461.1z"/>
</g>
<g id="Layer_2_46_">
	<g>
		<path class="st0" d="M161.8,424.9l-36.1,24.9L161.8,424.9z"/>
		<path class="st0" d="M123.3,453.7l-1.9-2.7c2.2-4.1-1.5-3.4,0-4.4l34.8-23.9c1.5-1,3.6-0.7,4.7,0.9l0,0l1.9,2.7
			c1.1,1.5,0.7,3.6-0.9,4.7l0,0l-34.9,24.4C125.4,456.4,127.6,452.7,123.3,453.7z"/>
	</g>
</g>
<g id="Layer_3_45_">
	<path class="st0" d="M132,455.5c-0.9,0.6-1.4,1.6-1.4,2.7v6.2c0,1.8,1.5,3.3,3.3,3.3H148c1.8,0,3.3-1.5,3.3-3.3v-15.9
		c0-2.7-3-4.3-5.2-2.7L132,455.5z"/>
</g>
<g id="Layer_1-2_44_">
	<path class="st0" d="M174.7,462.5v-35.8c0-1.8,1.5-3.3,3.3-3.3l0,0h3.2c1.9,0,3.3,1.5,3.3,3.3l0,0l0,0v35.7
		c0,8.7,6.1,15.1,13.8,15.1c7.7,0,13.9-6.4,13.9-15.1v-35.7c0-1.8,1.5-3.3,3.3-3.3l0,0h3.3c1.9,0,3.3,1.5,3.3,3.3l0,0v35.8
		c0,14.4-10.4,25-23.8,25C185.1,487.6,174.7,477,174.7,462.5z"/>
</g>
<g id="Layer_2_45_">
	<g>
		<path class="st0" d="M219.3,426.3l-36.1,24.9L219.3,426.3z"/>
		<path class="st0" d="M180.9,455.1l-1.9-2.7c2.2-4.1-1.5-3.4,0-4.4l34.8-23.9c1.5-1,3.6-0.7,4.7,0.9l0,0l1.9,2.7
			c1.1,1.5,0.7,3.6-0.9,4.7l0,0l-34.9,24.4C182.9,457.8,185.2,454.1,180.9,455.1z"/>
	</g>
</g>
<g id="Layer_3_44_">
	<path class="st0" d="M189.6,457c-0.9,0.6-1.4,1.6-1.4,2.7v6.2c0,1.8,1.5,3.3,3.3,3.3h14.1c1.8,0,3.3-1.5,3.3-3.3V450
		c0-2.7-3-4.3-5.2-2.7L189.6,457z"/>
</g>
<g id="Layer_1-2_43_">
	<path class="st0" d="M232.3,463.9v-35.8c0-1.8,1.5-3.3,3.3-3.3l0,0h3.2c1.8,0,3.3,1.5,3.3,3.3l0,0l0,0v35.7
		c0,8.7,6.1,15.1,13.8,15.1c7.7,0,13.9-6.4,13.9-15.1v-35.7c0-1.8,1.5-3.3,3.3-3.3l0,0h3.3c1.9,0,3.3,1.5,3.3,3.3l0,0v35.8
		c0,14.5-10.4,25-23.8,25C242.7,488.9,232.3,478.4,232.3,463.9z"/>
</g>
<g id="Layer_2_44_">
	<g>
		<path class="st0" d="M276.9,427.7l-36.1,24.9L276.9,427.7z"/>
		<path class="st0" d="M238.4,456.5l-1.9-2.7c2.2-4.1-1.5-3.4,0-4.4l34.7-23.9c1.5-1,3.6-0.7,4.7,0.9l0,0l1.9,2.7
			c1,1.5,0.7,3.6-0.9,4.7l0,0L242,458.1C240.5,459.1,242.8,455.4,238.4,456.5z"/>
	</g>
</g>
<g id="Layer_3_43_">
	<path class="st0" d="M247.1,458.3c-0.9,0.6-1.4,1.6-1.4,2.7v6.2c0,1.8,1.5,3.3,3.3,3.3h14.1c1.8,0,3.3-1.5,3.3-3.3v-15.9
		c0-2.7-3-4.3-5.2-2.7L247.1,458.3z"/>
</g>
<g id="Layer_1-2_42_">
	<path class="st0" d="M289.8,465.3v-35.8c0-1.8,1.5-3.3,3.3-3.3l0,0h3.2c1.9,0,3.3,1.5,3.3,3.3l0,0l0,0v35.7
		c0,8.7,6.1,15.1,13.8,15.1c7.7,0,13.9-6.4,13.9-15.1v-35.7c0-1.8,1.5-3.3,3.3-3.3l0,0h3.3c1.9,0,3.3,1.5,3.3,3.3l0,0v35.8
		c0,14.5-10.4,25-23.8,25C300.2,490.4,289.8,479.8,289.8,465.3z"/>
</g>
<g id="Layer_2_43_">
	<g>
		<path class="st0" d="M334.5,429.1L298.3,454L334.5,429.1z"/>
		<path class="st0" d="M296,457.9l-1.9-2.7c2.2-4.1-1.5-3.4,0-4.4l34.8-23.9c1.5-1,3.6-0.7,4.7,0.9l0,0l1.9,2.7
			c1,1.5,0.7,3.6-0.9,4.7l0,0l-34.9,24.4C298.1,460.6,300.3,456.9,296,457.9z"/>
	</g>
</g>
<g id="Layer_3_42_">
	<path class="st0" d="M304.7,459.7c-0.9,0.6-1.4,1.6-1.4,2.7v6.2c0,1.8,1.5,3.3,3.3,3.3h14.1c1.8,0,3.3-1.5,3.3-3.3v-15.9
		c0-2.7-3-4.3-5.2-2.7L304.7,459.7z"/>
</g>
<g id="Layer_1-2_41_">
	<path class="st0" d="M348.9,464.6v-35.8c0-1.8,1.5-3.3,3.3-3.3l0,0h3.2c1.9,0,3.3,1.5,3.3,3.3l0,0l0,0v35.7
		c0,8.7,6.1,15.1,13.8,15.1c7.7,0,13.9-6.4,13.9-15.1v-35.7c0-1.8,1.5-3.3,3.3-3.3l0,0h3.3c1.8,0,3.3,1.5,3.3,3.3l0,0v35.8
		c0,14.5-10.4,25-23.8,25C359.2,489.6,348.9,479.1,348.9,464.6z"/>
</g>
<g id="Layer_2_42_">
	<g>
		<path class="st0" d="M393.5,428.4l-36.1,24.9L393.5,428.4z"/>
		<path class="st0" d="M355,457.2l-1.9-2.7c2.2-4.1-1.5-3.4,0-4.4l34.8-23.9c1.5-1,3.6-0.7,4.7,0.9l0,0l1.9,2.7
			c1.1,1.5,0.7,3.6-0.9,4.7l0,0l-34.9,24.4C357.1,459.9,359.3,456.2,355,457.2z"/>
	</g>
</g>
<g id="Layer_3_41_">
	<path class="st0" d="M363.7,459c-0.9,0.6-1.4,1.6-1.4,2.7v6.2c0,1.8,1.5,3.3,3.3,3.3h14.1c1.8,0,3.3-1.5,3.3-3.3V452
		c0-2.7-3-4.3-5.2-2.7L363.7,459z"/>
</g>
<g id="Layer_1-2_40_">
	<path class="st0" d="M406.4,466v-35.8c0-1.8,1.5-3.3,3.3-3.3l0,0h3.2c1.9,0,3.3,1.5,3.3,3.3l0,0l0,0V466c0,8.7,6.1,15.1,13.8,15.1
		c7.7,0,13.9-6.4,13.9-15.1v-35.7c0-1.8,1.5-3.3,3.3-3.3l0,0h3.3c1.9,0,3.3,1.5,3.3,3.3l0,0V466c0,14.4-10.4,25-23.8,25
		C416.8,491.1,406.4,480.5,406.4,466z"/>
</g>
<g id="Layer_2_41_">
	<g>
		<path class="st0" d="M451,429.8l-36.1,24.9L451,429.8z"/>
		<path class="st0" d="M412.6,458.6l-1.9-2.7c2.2-4.1-1.5-3.4,0-4.4l34.8-23.9c1.5-1,3.6-0.7,4.7,0.9l0,0l1.9,2.7
			c1,1.5,0.7,3.6-0.9,4.7l0,0l-34.9,24.4C414.6,461.3,416.9,457.6,412.6,458.6z"/>
	</g>
</g>
<g id="Layer_3_40_">
	<path class="st0" d="M421.3,460.5c-0.9,0.6-1.4,1.6-1.4,2.7v6.2c0,1.8,1.5,3.3,3.3,3.3h14.1c1.8,0,3.3-1.5,3.3-3.3v-15.9
		c0-2.7-3-4.3-5.2-2.7L421.3,460.5z"/>
</g>
<g id="Layer_1-2_39_">
	<path class="st0" d="M1.3,529.5v-35.8c0-1.8,1.5-3.3,3.3-3.3l0,0h3.2c1.9,0,3.3,1.5,3.3,3.3l0,0l0,0v35.7c0,8.7,6.1,15.1,13.8,15.1
		S39,538.1,39,529.4v-35.7c0-1.8,1.5-3.3,3.3-3.3l0,0h3.3c1.8,0,3.3,1.5,3.3,3.3l0,0v35.8c0,14.5-10.4,25-23.8,25
		S1.3,543.9,1.3,529.5z"/>
</g>
<g id="Layer_2_40_">
	<g>
		<path class="st0" d="M46,493.3L9.8,518.1L46,493.3z"/>
		<path class="st0" d="M7.5,522.1l-1.9-2.7c2.2-4.1-1.5-3.4,0-4.4L40.4,491c1.5-1.1,3.6-0.7,4.7,0.9l0,0l1.9,2.7
			c1,1.5,0.7,3.6-0.9,4.7l0,0l-34.9,24.4C9.6,524.7,11.8,521,7.5,522.1z"/>
	</g>
</g>
<g id="Layer_3_39_">
	<path class="st0" d="M16.2,523.9c-0.9,0.6-1.4,1.6-1.4,2.7v6.2c0,1.8,1.5,3.3,3.3,3.3h14.1c1.8,0,3.3-1.5,3.3-3.3v-15.9
		c0-2.7-3-4.3-5.2-2.7L16.2,523.9z"/>
</g>
<g id="Layer_1-2_38_">
	<path class="st0" d="M58.9,530.9v-35.8c0-1.8,1.5-3.3,3.3-3.3l0,0h3.2c1.9,0,3.3,1.5,3.3,3.3l0,0l0,0v35.7
		c0,8.7,6.1,15.1,13.8,15.1s13.9-6.4,13.9-15.1v-35.7c0-1.8,1.5-3.3,3.3-3.3l0,0h3.3c1.8,0,3.3,1.5,3.3,3.3l0,0v35.8
		c0,14.5-10.4,25-23.8,25S58.9,545.3,58.9,530.9z"/>
</g>
<g id="Layer_2_39_">
	<g>
		<path class="st0" d="M103.5,494.7l-36.1,24.9L103.5,494.7z"/>
		<path class="st0" d="M65,523.5l-1.9-2.7c2.2-4.1-1.5-3.4,0-4.4l34.8-23.9c1.5-1,3.6-0.7,4.7,0.9l0,0l1.9,2.7
			c1.1,1.5,0.7,3.6-0.9,4.7l0,0l-34.9,24.4C67.1,526.1,69.4,522.4,65,523.5z"/>
	</g>
</g>
<g id="Layer_3_38_">
	<path class="st0" d="M73.7,525.3c-0.9,0.6-1.4,1.6-1.4,2.7v6.2c0,1.8,1.5,3.3,3.3,3.3h14.1c1.8,0,3.3-1.5,3.3-3.3v-15.9
		c0-2.7-3-4.3-5.2-2.7L73.7,525.3z"/>
</g>
<g id="Layer_1-2_37_">
	<path class="st0" d="M117.9,530.2v-35.8c0-1.8,1.5-3.3,3.3-3.3l0,0h3.2c1.8,0,3.3,1.5,3.3,3.3l0,0l0,0v35.7
		c0,8.7,6.1,15.1,13.8,15.1s13.9-6.4,13.9-15.1v-35.7c0-1.8,1.5-3.3,3.3-3.3l0,0h3.3c1.9,0,3.3,1.5,3.3,3.3l0,0v35.8
		c0,14.5-10.4,25-23.8,25C128.3,555.2,117.9,544.6,117.9,530.2z"/>
</g>
<g id="Layer_2_38_">
	<g>
		<path class="st0" d="M162.5,494l-36.1,24.9L162.5,494z"/>
		<path class="st0" d="M124.1,522.8l-1.9-2.7c2.2-4.1-1.5-3.4,0-4.4l34.8-23.9c1.5-1.1,3.6-0.7,4.7,0.9l0,0l1.9,2.7
			c1.1,1.5,0.7,3.6-0.9,4.7l0,0l-34.9,24.4C126.1,525.4,128.4,521.7,124.1,522.8z"/>
	</g>
</g>
<g id="Layer_3_37_">
	<path class="st0" d="M132.8,524.6c-0.9,0.6-1.4,1.6-1.4,2.7v6.2c0,1.8,1.5,3.3,3.3,3.3h14.1c1.8,0,3.3-1.5,3.3-3.3v-15.9
		c0-2.7-3-4.3-5.2-2.7L132.8,524.6z"/>
</g>
<g id="Layer_1-2_36_">
	<path class="st0" d="M175.5,531.6v-35.8c0-1.8,1.5-3.3,3.3-3.3l0,0h3.2c1.9,0,3.3,1.5,3.3,3.3l0,0l0,0v35.7
		c0,8.7,6.1,15.1,13.8,15.1s13.9-6.4,13.9-15.1v-35.7c0-1.8,1.5-3.3,3.3-3.3l0,0h3.3c1.8,0,3.3,1.5,3.3,3.3l0,0v35.8
		c0,14.5-10.4,25-23.8,25S175.5,546,175.5,531.6z"/>
</g>
<g id="Layer_2_37_">
	<g>
		<path class="st0" d="M220.1,495.4L184,520.3L220.1,495.4z"/>
		<path class="st0" d="M181.6,524.2l-1.9-2.7c2.2-4.1-1.5-3.4,0-4.4l34.8-23.9c1.5-1,3.6-0.7,4.7,0.9l0,0l1.9,2.7
			c1.1,1.5,0.7,3.6-0.9,4.7l0,0l-34.9,24.4C183.7,526.8,186,523.1,181.6,524.2z"/>
	</g>
</g>
<g id="Layer_3_36_">
	<path class="st0" d="M190.3,526c-0.9,0.6-1.4,1.6-1.4,2.7v6.2c0,1.8,1.5,3.3,3.3,3.3h14.1c1.8,0,3.3-1.5,3.3-3.3V519
		c0-2.7-3-4.3-5.2-2.7L190.3,526z"/>
</g>
<g id="Layer_1-2_35_">
	<path class="st0" d="M233,532.9v-35.8c0-1.8,1.5-3.3,3.3-3.3l0,0h3.2c1.9,0,3.3,1.5,3.3,3.3l0,0l0,0v35.7c0,8.7,6.1,15.1,13.8,15.1
		c7.7,0,13.9-6.4,13.9-15.1v-35.7c0-1.8,1.5-3.3,3.3-3.3l0,0h3.3c1.8,0,3.3,1.5,3.3,3.3l0,0v35.8c0,14.5-10.4,25-23.8,25
		S233,547.4,233,532.9z"/>
</g>
<g id="Layer_2_36_">
	<g>
		<path class="st0" d="M277.7,496.7l-36.1,24.9L277.7,496.7z"/>
		<path class="st0" d="M239.2,525.5l-1.9-2.7c2.2-4.1-1.5-3.4,0-4.4l34.7-23.9c1.5-1.1,3.6-0.7,4.7,0.9l0,0l1.9,2.7
			c1.1,1.5,0.7,3.6-0.9,4.7l0,0l-34.9,24.4C241.3,528.2,243.5,524.5,239.2,525.5z"/>
	</g>
</g>
<g id="Layer_3_35_">
	<path class="st0" d="M247.9,527.4c-0.9,0.6-1.4,1.6-1.4,2.7v6.2c0,1.8,1.5,3.3,3.3,3.3h14.1c1.8,0,3.3-1.5,3.3-3.3v-15.9
		c0-2.7-3-4.3-5.2-2.7L247.9,527.4z"/>
</g>
<g id="Layer_1-2_34_">
	<path class="st0" d="M290.6,534.4v-35.8c0-1.8,1.5-3.3,3.3-3.3l0,0h3.2c1.9,0,3.3,1.5,3.3,3.3l0,0l0,0v35.7
		c0,8.7,6.1,15.1,13.8,15.1c7.7,0,13.9-6.4,13.9-15.1v-35.7c0-1.8,1.5-3.3,3.3-3.3l0,0h3.3c1.9,0,3.3,1.5,3.3,3.3l0,0v35.8
		c0,14.5-10.4,25-23.8,25C301,559.4,290.6,548.8,290.6,534.4z"/>
</g>
<g id="Layer_2_35_">
	<g>
		<path class="st0" d="M335.2,498.2L299.1,523L335.2,498.2z"/>
		<path class="st0" d="M296.7,527l-1.9-2.7c2.2-4.1-1.5-3.4,0-4.4l34.8-23.9c1.5-1.1,3.6-0.7,4.7,0.9l0,0l1.9,2.7
			c1,1.5,0.7,3.6-0.9,4.7l0,0l-34.9,24.4C298.8,529.6,301.1,525.9,296.7,527z"/>
	</g>
</g>
<g id="Layer_3_34_">
	<path class="st0" d="M305.4,528.8c-0.9,0.6-1.4,1.6-1.4,2.7v6.2c0,1.8,1.5,3.3,3.3,3.3h14.1c1.8,0,3.3-1.5,3.3-3.3v-15.9
		c0-2.7-3-4.3-5.2-2.7L305.4,528.8z"/>
</g>
<g id="Layer_1-2_33_">
	<path class="st0" d="M349.6,533.6v-35.8c0-1.8,1.5-3.3,3.3-3.3l0,0h3.2c1.8,0,3.3,1.5,3.3,3.3l0,0l0,0v35.7
		c0,8.7,6.1,15.1,13.8,15.1c7.7,0,13.9-6.4,13.9-15.1v-35.7c0-1.8,1.5-3.3,3.3-3.3l0,0h3.3c1.9,0,3.3,1.5,3.3,3.3l0,0v35.8
		c0,14.5-10.4,25-23.8,25S349.6,548.1,349.6,533.6z"/>
</g>
<g id="Layer_2_34_">
	<g>
		<path class="st0" d="M394.2,497.5l-36.1,24.9L394.2,497.5z"/>
		<path class="st0" d="M355.8,526.2l-1.9-2.7c2.2-4.1-1.5-3.4,0-4.4l34.8-23.9c1.5-1.1,3.6-0.7,4.7,0.9l0,0l1.9,2.7
			c1.1,1.5,0.7,3.6-0.9,4.7l0,0l-34.9,24.4C357.8,528.9,360.1,525.2,355.8,526.2z"/>
	</g>
</g>
<g id="Layer_3_33_">
	<path class="st0" d="M364.5,528.1c-0.9,0.6-1.4,1.6-1.4,2.7v6.2c0,1.8,1.5,3.3,3.3,3.3h14.1c1.8,0,3.3-1.5,3.3-3.3v-15.9
		c0-2.7-3-4.3-5.2-2.7L364.5,528.1z"/>
</g>
<g id="Layer_1-2_32_">
	<path class="st0" d="M407.2,535.1v-35.8c0-1.8,1.5-3.3,3.3-3.3l0,0h3.2c1.9,0,3.3,1.5,3.3,3.3l0,0l0,0V535
		c0,8.7,6.1,15.1,13.8,15.1c7.7,0,13.9-6.4,13.9-15.1v-35.7c0-1.8,1.5-3.3,3.3-3.3l0,0h3.3c1.8,0,3.3,1.5,3.3,3.3l0,0v35.8
		c0,14.5-10.4,25-23.8,25C417.6,560.1,407.2,549.5,407.2,535.1z"/>
</g>
<g id="Layer_2_33_">
	<g>
		<path class="st0" d="M451.8,498.9l-36.1,24.9L451.8,498.9z"/>
		<path class="st0" d="M413.3,527.7l-1.9-2.7c2.2-4.1-1.5-3.4,0-4.4l34.8-23.9c1.5-1,3.6-0.7,4.7,0.9l0,0l1.9,2.7
			c1.1,1.5,0.7,3.6-0.9,4.7l0,0l-34.9,24.4C415.4,530.3,417.7,526.6,413.3,527.7z"/>
	</g>
</g>
<g id="Layer_3_32_">
	<path class="st0" d="M422,529.5c-0.9,0.6-1.4,1.6-1.4,2.7v6.2c0,1.8,1.5,3.3,3.3,3.3H438c1.8,0,3.3-1.5,3.3-3.3v-15.9
		c0-2.7-3-4.3-5.2-2.7L422,529.5z"/>
</g>
</svg>
