<?xml version="1.0" encoding="utf-8"?>
<!-- Generator: Adobe Illustrator 24.1.0, SVG Export Plug-In . SVG Version: 6.00 Build 0)  -->
<svg version="1.1" id="Layer_1" xmlns="http://www.w3.org/2000/svg" xmlns:xlink="http://www.w3.org/1999/xlink" x="0px" y="0px"
	 viewBox="0 0 476.2 641.4" style="enable-background:new 0 0 476.2 641.4;" xml:space="preserve">
<style type="text/css">
	.st0{fill:#FFFFFF;}
</style>
<g id="Layer_1-2">
	<path class="st0" d="M0,391V33.4C0,15,14.9,0,33.4,0l0,0h32.4c18.5,0,33.4,15,33.4,33.4l0,0l0,0v357.3
		c0,87.1,61.3,150.8,138.3,150.8s139.1-63.7,139.1-150.8V33.4C376.5,15,391.5,0,409.9,0l0,0h32.8c18.5,0,33.4,15,33.4,33.4l0,0V391
		c0,144.5-104.3,250.4-238.3,250.4S0,535.6,0,391z"/>
</g>
<g id="Layer_2_1_">
	<g>
		<path class="st0" d="M446.2,29.1L85,277.7L446.2,29.1z"/>
		<path class="st0" d="M61.5,317l-18.7-27.2c22.3-41-15.2-33.8,0-44.3L390.3,6.9c15.2-10.5,36.1-6.6,46.6,8.6l0,0l18.7,27.2
			c10.5,15.2,6.6,36.1-8.6,46.6l0,0L97.6,333C82.3,343.5,104.9,306.5,61.5,317z"/>
	</g>
</g>
<g id="Layer_3">
	<path class="st0" d="M148.4,335.3c-9,6.2-14.4,16.4-14.4,27.3v62c0,18.3,14.9,33.2,33.2,33.2h141.3c18.3,0,33.2-14.9,33.2-33.2
		V265.3c0-26.8-30-42.5-52.1-27.4L148.4,335.3z"/>
</g>
</svg>
